<?xml version="1.0" encoding="utf-8" standalone="yes"?>
<!DOCTYPE svg PUBLIC "-//W3C//DTD SVG 1.1//EN" "http://www.w3.org/Graphics/SVG/1.1/DTD/svg11.dtd">
<svg width="958" height="688" viewBox="0 0 958 688" style="fill:none;stroke:none;fill-rule:evenodd;clip-rule:evenodd;stroke-linecap:round;stroke-linejoin:round;stroke-miterlimit:1.5;" version="1.1" xmlns="http://www.w3.org/2000/svg" xmlns:xlink="http://www.w3.org/1999/xlink"><style class="text-font-style fontImports" data-font-family="Shantell Sans">@import url('https://fonts.googleapis.com/css2?family=Shantell+Sans:wght@300..800&amp;display=block');</style><g id="items" style="isolation: isolate"><g id="blend" style="mix-blend-mode: normal"><g id="g-root-ro_1cxdf321j9cutr-fill" data-item-order="-19440" transform="translate(566, 346)"><g id="ro_1cxdf321j9cutr-fill" stroke="none" fill="#815d3b"><g><path d="M 377 23.6L 375.4 20.7L 352.8 21.1L 359.5 33.2ZM 352.8 21.1L 332.8 60.4L 352.7 65.4L 375.4 20.7ZM 352.7 65.4L 353.8 16.5L 333.9 12.9L 332.8 60.4ZM 333.9 12.9L 316.1 64.4L 336.5 66.8L 353.8 16.5ZM 336.5 66.8L 331.4 15.9L 311 13.2L 316.1 64.4ZM 311 13.2L 293.4 59.6L 313.8 62.3L 331.4 15.9ZM 313.8 62.3L 308.7 10.6L 288.5 8.9L 293.4 59.6ZM 288.5 8.9L 273.4 64.6L 293.6 66.5L 308.7 10.6ZM 293.6 66.5L 289.4 11.6L 269.1 8.9L 273.4 64.6ZM 269.1 8.9L 251.6 59.1L 271.9 61.7L 289.4 11.6ZM 271.9 61.7L 267.9 12.5L 247.5 8.8L 251.6 59.1ZM 247.5 8.8L 223.4 61L 243.7 64.7L 267.9 12.5ZM 243.7 64.7L 240.4 15.3L 220.2 12.2L 223.4 61ZM 220.2 12.2L 201.8 60.2L 222.3 62.5L 240.4 15.3ZM 222.3 62.5L 215.7 14.8L 195.3 13L 201.8 60.2ZM 195.3 13L 180.3 59.3L 200.1 62.8L 215.7 14.8ZM 200.1 62.8L 202 12.9L 182.1 9.3L 180.3 59.3ZM 182.1 9.3L 165.1 59.8L 185.4 62.4L 202 12.9ZM 185.4 62.4L 182.2 17.8L 161.8 13.5L 165.1 59.8ZM 161.8 13.5L 137.8 58.8L 158.4 62.7L 182.2 17.8ZM 158.4 62.7L 152.5 9.5L 132.2 8.3L 137.8 58.8ZM 132.2 8.3L 121.1 57.6L 141.5 58L 152.5 9.5ZM 141.5 58L 133.2 11.5L 112.6 10L 121.1 57.6ZM 112.6 10L 96.8 58.1L 117.1 60.5L 133.2 11.5ZM 117.1 60.5L 113.1 9.4L 92.8 6.8L 96.8 58.1ZM 92.8 6.8L 75 58.1L 95.3 60.7L 113.1 9.4ZM 95.3 60.7L 91.7 14.9L 71.3 11.3L 75 58.1ZM 71.3 11.3L 50 57.5L 70.8 60.3L 91.7 14.9ZM 70.8 60.3L 62.6 10.7L 42.2 10.1L 50 57.5ZM 42.2 10.1L 30.7 62.2L 51 63.1L 62.6 10.7ZM 51 63.1L 44.4 13.6L 24 11.7L 30.7 62.2ZM 24 11.7L 8.1 59.7L 28.1 62.7L 44.4 13.6ZM 28.1 62.7L 27.4 31.2L 7.4 31.7L 8.1 59.7Z" fill-rule="nonzero"></path></g></g></g><g id="g-root-ro_18fohpa1j9ifpd-fill" data-item-order="-19440" transform="translate(-8, 368.5)"><g id="ro_18fohpa1j9ifpd-fill" stroke="none" fill="#776f30"><g><path d="M 371.9 37.5L 376.5 28L 359.2 17.9L 353.9 28.7ZM 359.2 17.9L 331.8 57.4L 351.9 63.5L 376.5 28ZM 351.9 63.5L 350.9 17.6L 330.8 13.7L 331.8 57.4ZM 330.8 13.7L 310.5 60.3L 330.4 64.8L 350.9 17.6ZM 330.4 64.8L 331.9 17.2L 312 12.9L 310.5 60.3ZM 312 12.9L 291.2 63L 311 67.4L 331.9 17.2ZM 311 67.4L 313.3 13.1L 293.5 7.5L 291.2 63ZM 293.5 7.5L 265.9 57.5L 286.2 62.1L 313.3 13.1ZM 286.2 62.1L 283.2 11.6L 263.1 10L 265.9 57.5ZM 263.1 10L 252.2 60.9L 272.4 61.9L 283.2 11.6ZM 272.4 61.9L 266.5 9.5L 246 6.8L 252.2 60.9ZM 246 6.8L 225.2 60.5L 245.3 64L 266.5 9.5ZM 245.3 64L 244 16.6L 223.9 12.2L 225.2 60.5ZM 223.9 12.2L 200.4 60.3L 220.6 64.6L 244 16.6ZM 220.6 64.6L 218.4 12.9L 198.2 9.8L 200.4 60.3ZM 198.2 9.8L 179.2 62.7L 199.4 65.6L 218.4 12.9ZM 199.4 65.6L 196.4 17.2L 176.2 14.8L 179.2 62.7ZM 176.2 14.8L 161.1 63.3L 181 66.4L 196.4 17.2ZM 181 66.4L 181.7 11.9L 161.8 7L 161.1 63.3ZM 161.8 7L 136.4 56.5L 156.5 61L 181.7 11.9ZM 156.5 61L 155.2 11.2L 135.1 7.5L 136.4 56.5ZM 135.1 7.5L 112.7 62.6L 132.9 65.9L 155.2 11.2ZM 132.9 65.9L 129.9 15.3L 109.7 13L 112.7 62.6ZM 109.7 13L 96.6 57.4L 117 58.9L 129.9 15.3ZM 117 58.9L 110.3 13.1L 89.8 11L 96.6 57.4ZM 89.8 11L 71.4 62.3L 91.5 65.4L 110.3 13.1ZM 91.5 65.4L 89.4 12.6L 69.3 10L 71.4 62.3ZM 69.3 10L 53.1 63.4L 73.6 64.9L 89.4 12.6ZM 73.6 64.9L 65.4 11.6L 45 10.4L 53.1 63.4ZM 45 10.4L 31 61.7L 51.2 63.7L 65.4 11.6ZM 51.2 63.7L 47.9 13.6L 27.6 9.6L 31 61.7ZM 27.6 9.6L 4.9 55.4L 23.7 62.6L 47.9 13.6ZM 23.7 62.6L 27.4 49L 8.2 43.6L 4.9 55.4Z" fill-rule="nonzero"></path></g></g></g><g id="g-root-ro_dbp0ny1j9l893-fill" data-item-order="-18792" transform="translate(72, 20.5)"><g id="ro_dbp0ny1j9l893-fill" stroke="none" fill="#954643"><g><path d="M 360.6 41.4L 357.1 14.9L 336.7 13.7L 340.8 44.1ZM 336.7 13.7L 324.4 61.5L 344.8 62.7L 357.1 14.9ZM 344.8 62.7L 338.1 14.2L 317.7 12.1L 324.4 61.5ZM 317.7 12.1L 299.2 64.3L 319.4 67.4L 338.1 14.2ZM 319.4 67.4L 317.1 9.8L 297 6.5L 299.2 64.3ZM 297 6.5L 275.6 63.5L 295.5 67.5L 317.1 9.8ZM 295.5 67.5L 297 18.3L 277.2 13.3L 275.6 63.5ZM 277.2 13.3L 252.9 61.8L 273.3 65.6L 297 18.3ZM 273.3 65.6L 268.3 14.4L 248.1 12.4L 252.9 61.8ZM 248.1 12.4L 232.7 64L 252.6 67.3L 268.3 14.4ZM 252.6 67.3L 254.7 13.3L 234.8 9L 232.7 64ZM 234.8 9L 213 62.5L 233.5 65.2L 254.7 13.3ZM 233.5 65.2L 226.7 10.1L 206.3 8.4L 213 62.5ZM 206.3 8.4L 189.5 64.2L 209.8 66.2L 226.7 10.1ZM 209.8 66.2L 204.3 12.1L 184 10L 189.5 64.2ZM 184 10L 167.2 62.7L 187.3 65.7L 204.3 12.1ZM 187.3 65.7L 186.7 18L 166.6 13.9L 167.2 62.7ZM 166.6 13.9L 148 56.3L 168.2 59.9L 186.7 18ZM 168.2 59.9L 165.3 10.6L 145.1 7.3L 148 56.3ZM 145.1 7.3L 125.7 56.4L 146.1 59.4L 165.3 10.6ZM 146.1 59.4L 142 11.8L 121.6 8.3L 125.7 56.4ZM 121.6 8.3L 99.9 56.7L 120.3 60.2L 142 11.8ZM 120.3 60.2L 116.2 9.9L 95.9 7.5L 99.9 56.7ZM 95.9 7.5L 78.3 61.6L 98.3 64.8L 116.2 9.9ZM 98.3 64.8L 98.3 13.7L 78.3 10L 78.3 61.6ZM 78.3 10L 58 63.2L 78.7 65L 98.3 13.7ZM 78.7 65L 69.2 15.7L 48.6 14.3L 58 63.2ZM 48.6 14.3L 34.7 56.3L 55 58.7L 69.2 15.7ZM 55 58.7L 51.5 17.2L 31.2 14.1L 34.7 56.3ZM 31.2 14.1L 10.4 64.5L 30.8 67.5L 51.5 17.2ZM 30.8 67.5L 25 13.3L 5.1 15.4L 10.4 64.5Z" fill-rule="nonzero"></path></g></g></g><g id="g-root-ro_1qbzmam1izda19-fill" data-item-order="-18144" transform="translate(376, 269.5)"><g id="ro_1qbzmam1izda19-fill" stroke="none" fill="#6b6b6b"><g><path d="M 149.7 128.5L 153.5 126.2L 144.8 108.1L 139.3 111.4ZM 144.8 108.1L 99.7 124.4L 111.1 141.5L 153.5 126.2ZM 111.1 141.5L 161.2 87L 147.7 72.2L 99.7 124.4ZM 147.7 72.2L 74.5 127.6L 88.9 141.8L 161.2 87ZM 88.9 141.8L 157.6 49.5L 142.5 36.4L 74.5 127.6ZM 142.5 36.4L 49.6 128L 64.8 141.2L 157.6 49.5ZM 64.8 141.2L 150.1 25.8L 134.9 12.8L 49.6 128ZM 134.9 12.8L 18.4 129.6L 33.7 142.6L 150.1 25.8ZM 33.7 142.6L 125.1 16.9L 109.7 4L 18.4 129.6ZM 109.7 4L 8.9 108.8L 24.5 121.5L 125.1 16.9ZM 24.5 121.5L 93.8 19.8L 78.4 6.9L 8.9 108.8ZM 78.4 6.9L 9.3 73.8L 24.8 86.7L 93.8 19.8ZM 24.8 86.7L 70.7 17.3L 56 3.3L 9.3 73.8ZM 56 3.3L 9.9 36.9L 25.4 50.4L 70.7 17.3ZM 25.4 50.4L 41.4 20.4L 23.7 11L 9.9 36.9Z" fill-rule="nonzero"></path></g></g></g><g id="g-root-ro_qp29pa1izg2yr-fill" data-item-order="-17496" transform="translate(556, 194.5)"><g id="ro_qp29pa1izg2yr-fill" stroke="none" fill="#82489d"><g><path d="M 337.3 23.9L 335.1 16.8L 314 16.2L 318.1 29.7ZM 314 16.2L 296.1 64.8L 316 68.6L 335.1 16.8ZM 316 68.6L 317.5 13.9L 297.6 9.3L 296.1 64.8ZM 297.6 9.3L 273.6 62.6L 294 66.1L 317.5 13.9ZM 294 66.1L 290.1 17.8L 269.7 14.8L 273.6 62.6ZM 269.7 14.8L 250.7 63.6L 270.6 67.5L 290.1 17.8ZM 270.6 67.5L 271.3 17.7L 251.4 13.4L 250.7 63.6ZM 251.4 13.4L 232.4 57.1L 252.5 60.9L 271.3 17.7ZM 252.5 60.9L 250.6 13.3L 230.5 9.8L 232.4 57.1ZM 230.5 9.8L 211.6 57.6L 232.5 59.2L 250.6 13.3ZM 232.5 59.2L 222.4 15.6L 201.7 15L 211.6 57.6ZM 201.7 15L 188.5 59.6L 208.8 61.2L 222.4 15.6ZM 208.8 61.2L 202.5 11.9L 182.1 10L 188.5 59.6ZM 182.1 10L 165.3 60.3L 185.3 63.6L 202.5 11.9ZM 185.3 63.6L 185.4 15.7L 165.4 10.2L 165.3 60.3ZM 165.4 10.2L 139 55.2L 158.8 61.1L 185.4 15.7ZM 158.8 61.1L 161.1 10.9L 141.3 6.3L 139 55.2ZM 141.3 6.3L 119.5 55.4L 139.5 59.8L 161.1 10.9ZM 139.5 59.8L 140.2 12.4L 120.2 9.5L 119.5 55.4ZM 120.2 9.5L 104.8 63.2L 125.4 63.9L 140.2 12.4ZM 125.4 63.9L 114.1 11.7L 93.3 10.3L 104.8 63.2ZM 93.3 10.3L 76.4 58L 96.8 60.4L 114.1 11.7ZM 96.8 60.4L 91 10.5L 70.7 8.9L 76.4 58ZM 70.7 8.9L 56 61.6L 76 64.3L 91 10.5ZM 76 64.3L 75.7 15.9L 55.7 11.6L 56 61.6ZM 55.7 11.6L 33.5 60.6L 54.1 63.7L 75.7 15.9ZM 54.1 63.7L 47.1 10.5L 26.8 9.4L 33.5 60.6ZM 26.8 9.4L 15.2 58.2L 35.6 58.9L 47.1 10.5ZM 35.6 58.9L 27.8 9.8L 8.1 12.9L 15.2 58.2Z" fill-rule="nonzero"></path></g></g></g><g id="g-root-ro_v63ela1j9h24u-fill" data-item-order="-16848" transform="translate(34, 170.5)"><g id="ro_v63ela1j9h24u-fill" stroke="none" fill="#82489d"><g><path d="M 325.3 32L 329.2 19L 310.4 12.1L 306.2 26.2ZM 310.4 12.1L 288 63.1L 308.1 66.9L 329.2 19ZM 308.1 66.9L 305.7 11.1L 285.6 8.2L 288 63.1ZM 285.6 8.2L 266.2 64.8L 286.8 66.4L 305.7 11.1ZM 286.8 66.4L 277.5 15.2L 257 14.2L 266.2 64.8ZM 257 14.2L 242.9 64.4L 262.9 67.1L 277.5 15.2ZM 262.9 67.1L 262.9 12.2L 242.9 9L 242.9 64.4ZM 242.9 9L 225.9 59.4L 246.7 60.2L 262.9 12.2ZM 246.7 60.2L 235.9 16.7L 215.1 16.2L 225.9 59.4ZM 215.1 16.2L 200.4 64.5L 220.8 66.5L 235.9 16.7ZM 220.8 66.5L 214.8 10.9L 194.5 9.5L 200.4 64.5ZM 194.5 9.5L 181.5 60.3L 201.9 61.1L 214.8 10.9ZM 201.9 61.1L 193.8 14.8L 173.3 13.5L 181.5 60.3ZM 173.3 13.5L 157.8 64L 178 66.2L 193.8 14.8ZM 178 66.2L 174 15.7L 153.7 12.1L 157.8 64ZM 153.7 12.1L 131.5 60.4L 151.4 65L 174 15.7ZM 151.4 65L 152.4 14.3L 132.4 11.6L 131.5 60.4ZM 132.4 11.6L 119.3 61.3L 139.6 62.8L 152.4 14.3ZM 139.6 62.8L 133.2 8.8L 112.8 6.6L 119.3 61.3ZM 112.8 6.6L 93.9 61.2L 114.4 63.3L 133.2 8.8ZM 114.4 63.3L 107.7 10.8L 87.3 8.5L 93.9 61.2ZM 87.3 8.5L 67.3 62.7L 87.4 65.9L 107.7 10.8ZM 87.4 65.9L 85.7 16.5L 65.6 14L 67.3 62.7ZM 65.6 14L 52 61.3L 72.2 63.4L 85.7 16.5ZM 72.2 63.4L 68.4 11.9L 48.1 9.1L 52 61.3ZM 48.1 9.1L 29.8 58.8L 50.4 60.7L 68.4 11.9ZM 50.4 60.7L 42 11.9L 21.3 9.6L 29.8 58.8ZM 21.3 9.6L 3.3 52.8L 21.3 61.7L 42 11.9ZM 21.3 61.7L 28.4 49.4L 11 39.5L 3.3 52.8Z" fill-rule="nonzero"></path></g></g></g><g id="g-root-ro_vagq721j98n46-fill" data-item-order="-16200" transform="translate(482, 494.5)"><g id="ro_vagq721j98n46-fill" stroke="none" fill="#60703f"><g><path d="M 310.7 42.5L 312.2 17.6L 292.4 13.7L 290.8 41.2ZM 292.4 13.7L 276.8 59.4L 297.2 61.6L 312.2 17.6ZM 297.2 61.6L 290.9 9.6L 270.6 7.8L 276.8 59.4ZM 270.6 7.8L 254.4 62.2L 275 63.2L 290.9 9.6ZM 275 63.2L 265.9 16L 245.2 14.2L 254.4 62.2ZM 245.2 14.2L 228.9 56.7L 249.1 60L 265.9 16ZM 249.1 60L 247.2 11.1L 227.1 7.9L 228.9 56.7ZM 227.1 7.9L 205.9 64.1L 225.7 68.2L 247.2 11.1ZM 225.7 68.2L 228.7 11.8L 208.9 7.5L 205.9 64.1ZM 208.9 7.5L 188.7 57.4L 209.1 60.1L 228.7 11.8ZM 209.1 60.1L 204.2 17.4L 183.7 13.8L 188.7 57.4ZM 183.7 13.8L 162.2 57L 182.8 60.5L 204.2 17.4ZM 182.8 60.5L 177 15.8L 156.6 13.7L 162.2 57ZM 156.6 13.7L 141.4 57.5L 161.8 59.7L 177 15.8ZM 161.8 59.7L 156.6 14.7L 136.2 12.4L 141.4 57.5ZM 136.2 12.4L 118.8 60.9L 139 63.8L 156.6 14.7ZM 139 63.8L 136.3 13.4L 116.1 10.7L 118.8 60.9ZM 116.1 10.7L 98.9 62.4L 119 65.3L 136.3 13.4ZM 119 65.3L 117.2 14.8L 97.1 10.5L 98.9 62.4ZM 97.1 10.5L 74.3 57.1L 94.5 61.2L 117.2 14.8ZM 94.5 61.2L 92.1 10.7L 71.9 8.5L 74.3 57.1ZM 71.9 8.5L 57.9 60.8L 78.3 61.9L 92.1 10.7ZM 78.3 61.9L 71.4 17.1L 50.8 14.7L 57.9 60.8ZM 50.8 14.7L 33.4 57.9L 54.1 60.1L 71.4 17.1ZM 54.1 60.1L 45.8 9.8L 25.4 9L 33.4 57.9ZM 25.4 9L 12.9 59.8L 33.5 59.7L 45.8 9.8ZM 33.5 59.7L 23.2 19.6L 3.8 24.6L 12.9 59.8Z" fill-rule="nonzero"></path></g></g></g><g id="g-root-ro_zoet261j9bev8-fill" data-item-order="-14904" transform="translate(488, 44.5)"><g id="ro_zoet261j9bev8-fill" stroke="none" fill="#346778"><g><path d="M 291.1 44.1L 288.1 13.6L 267.8 11.8L 271.2 46.1ZM 267.8 11.8L 254.1 59.3L 274.5 61L 288.1 13.6ZM 274.5 61L 268.6 11.6L 248.2 9L 254.1 59.3ZM 248.2 9L 229.7 57L 250.4 58.8L 268.6 11.6ZM 250.4 58.8L 242 16.3L 221.6 15.9L 229.7 57ZM 221.6 15.9L 209.7 65.3L 230.1 65.9L 242 16.3ZM 230.1 65.9L 221.2 16.2L 200.5 14.1L 209.7 65.3ZM 200.5 14.1L 182.9 59.1L 203.1 62.3L 221.2 16.2ZM 203.1 62.3L 200.8 18.7L 180.6 14.2L 182.9 59.1ZM 180.6 14.2L 157.7 57.6L 178.3 61.4L 200.8 18.7ZM 178.3 61.4L 172.2 13L 151.9 11.9L 157.7 57.6ZM 151.9 11.9L 140.2 62.1L 160.3 63.8L 172.2 13ZM 160.3 63.8L 157.1 12.1L 136.8 9L 140.2 62.1ZM 136.8 9L 116.4 61.9L 136.9 64.3L 157.1 12.1ZM 136.9 64.3L 129.9 12.7L 109.6 11.5L 116.4 61.9ZM 109.6 11.5L 95.8 65.2L 116.1 66.5L 129.9 12.7ZM 116.1 66.5L 108.9 9.5L 88.6 8.1L 95.8 65.2ZM 88.6 8.1L 74.6 60.1L 95 61.1L 108.9 9.5ZM 95 61.1L 86.1 8.9L 65.8 8.4L 74.6 60.1ZM 65.8 8.4L 53.8 62.8L 74.2 63.3L 86.1 8.9ZM 74.2 63.3L 65.3 12.2L 44.9 11.6L 53.8 62.8ZM 44.9 11.6L 33.6 59.1L 53.7 60.9L 65.3 12.2ZM 53.7 60.9L 50.9 12.1L 30.6 8.2L 33.6 59.1ZM 30.6 8.2L 6.8 58.7L 27.5 61.6L 50.9 12.1ZM 27.5 61.6L 23.9 40.3L 4.2 43.7L 6.8 58.7Z" fill-rule="nonzero"></path></g></g></g><g id="g-root-ro_1cwqxzy1j9juh0-fill" data-item-order="-14256" transform="translate(144, 518.5)"><g id="ro_1cwqxzy1j9juh0-fill" stroke="none" fill="#426397"><g><path d="M 278.4 40L 272.1 16.3L 251.6 17.3L 259.1 45.1ZM 251.6 17.3L 244.5 59.2L 264.7 59.3L 272.1 16.3ZM 264.7 59.3L 256.8 10.4L 236.3 8.8L 244.5 59.2ZM 236.3 8.8L 219.4 59.8L 239.8 61.8L 256.8 10.4ZM 239.8 61.8L 234.2 17.7L 213.7 15.3L 219.4 59.8ZM 213.7 15.3L 197.9 57.8L 218.3 60.5L 234.2 17.7ZM 218.3 60.5L 213.5 10.9L 193.2 8.7L 197.9 57.8ZM 193.2 8.7L 176.1 61.9L 196.8 62.8L 213.5 10.9ZM 196.8 62.8L 185.8 14.5L 165.3 14.3L 176.1 61.9ZM 165.3 14.3L 154.3 58.4L 174.6 59.8L 185.8 14.5ZM 174.6 59.8L 169.7 16.3L 149.4 14.6L 154.3 58.4ZM 149.4 14.6L 135.6 62.4L 155.7 64.7L 169.7 16.3ZM 155.7 64.7L 152.8 17.7L 132.5 13.9L 135.6 62.4ZM 132.5 13.9L 110.3 62.2L 130.6 66.1L 152.8 17.7ZM 130.6 66.1L 128 15.5L 107.9 12.8L 110.3 62.2ZM 107.9 12.8L 91.5 62.5L 111.5 65.9L 128 15.5ZM 111.5 65.9L 112.3 16.6L 92.3 11L 91.5 62.5ZM 92.3 11L 66.1 55.9L 86.2 61L 112.3 16.6ZM 86.2 61L 84.4 11L 64.3 8.5L 66.1 55.9ZM 64.3 8.5L 47.9 65L 68.2 67L 84.4 11ZM 68.2 67L 63.3 13.8L 43.1 12.6L 47.9 65ZM 43.1 12.6L 32.7 61.6L 53 62.2L 63.3 13.8ZM 53 62.2L 46.5 16.8L 26 14.9L 32.7 61.6ZM 26 14.9L 10.8 58.3L 31.1 60.8L 46.5 16.8ZM 31.1 60.8L 28.8 35.8L 8.9 37.6L 10.8 58.3Z" fill-rule="nonzero"></path></g></g></g><g id="g-root-tx_rozwizyw_18fohpa1j9fo5j-fill" data-item-order="0" transform="translate(90, 620.5)"><g id="tx_rozwizyw_18fohpa1j9fo5j-fill" stroke="none" fill="#f4f4f4"><g><text style="font-style: normal; font-variant-caps: normal; font-weight: normal; font-stretch: normal; font-size: 20px; line-height: normal; font-family: &quot;Shantell Sans&quot;, cursive; font-size-adjust: none; font-kerning: auto; font-variant-alternates: normal; font-variant-ligatures: normal; font-variant-numeric: normal; font-variant-east-asian: normal; font-variant-position: normal; font-variant-emoji: normal; font-feature-settings: normal; font-optical-sizing: auto; font-variation-settings: normal; white-space: pre;"><tspan x="14.44" y="35" dominant-baseline="ideographic">Rozwiązywanie problemów</tspan></text></g></g></g><g id="g-root-tx_optymali_qp0yam1j9fncy-fill" data-item-order="0" transform="translate(120, 86.5)"><g id="tx_optymali_qp0yam1j9fncy-fill" stroke="none" fill="#f4f4f4"><g><text style="font-style: normal; font-variant-caps: normal; font-weight: normal; font-stretch: normal; font-size: 20px; line-height: normal; font-family: &quot;Shantell Sans&quot;, cursive; font-size-adjust: none; font-kerning: auto; font-variant-alternates: normal; font-variant-ligatures: normal; font-variant-numeric: normal; font-variant-east-asian: normal; font-variant-position: normal; font-variant-emoji: normal; font-feature-settings: normal; font-optical-sizing: auto; font-variation-settings: normal; white-space: pre;"><tspan x="12.23" y="35" dominant-baseline="ideographic">Optymalizacja procesów</tspan></text></g></g></g><g id="g-root-cu_zk1hge1j9l9mp-fill" data-item-order="0" transform="translate(366.3157958984375, 74.5)"></g><g id="g-root-cu_qoeh7i1j9lafg-fill" data-item-order="0" transform="translate(372.70587158203125, 74.5)"></g><g id="g-root-cu_v47zby1j9laf5-fill" data-item-order="0" transform="translate(511.33331298828125, 98.5)"></g><g id="g-root-cu_qoeh7i1j9lafi-fill" data-item-order="0" transform="translate(513.0908813476562, 98.5)"></g><g id="g-root-tx_wdraanie_htdy1q1j9fo5n-fill" data-item-order="0" transform="translate(138, 122.5)"><g id="tx_wdraanie_htdy1q1j9fo5n-fill" stroke="none" fill="#f4f4f4"><g><text style="font-style: normal; font-variant-caps: normal; font-weight: normal; font-stretch: normal; font-size: 20px; line-height: normal; font-family: &quot;Shantell Sans&quot;, cursive; font-size-adjust: none; font-kerning: auto; font-variant-alternates: normal; font-variant-ligatures: normal; font-variant-numeric: normal; font-variant-east-asian: normal; font-variant-position: normal; font-variant-emoji: normal; font-feature-settings: normal; font-optical-sizing: auto; font-variation-settings: normal; white-space: pre;"><tspan x="14.41" y="35" dominant-baseline="ideographic">Wdrażanie technologii</tspan></text></g></g></g><g id="g-root-tx_rozwizan_de6x0e1j9fls4-fill" data-item-order="0" transform="translate(530, 110.5)"><g id="tx_rozwizan_de6x0e1j9fls4-fill" stroke="none" fill="#f4f4f4"><g><text style="font-style: normal; font-variant-caps: normal; font-weight: normal; font-stretch: normal; font-size: 20px; line-height: normal; font-family: &quot;Shantell Sans&quot;, cursive; font-size-adjust: none; font-kerning: auto; font-variant-alternates: normal; font-variant-ligatures: normal; font-variant-numeric: normal; font-variant-east-asian: normal; font-variant-position: normal; font-variant-emoji: normal; font-feature-settings: normal; font-optical-sizing: auto; font-variation-settings: normal; white-space: pre;"><tspan x="17.36" y="35" dominant-baseline="ideographic">Rozwiązania AWS</tspan></text></g></g></g><g id="g-root-tx_integrac_4ijwri1j9fmkt-fill" data-item-order="0" transform="translate(530, 146.5)"><g id="tx_integrac_4ijwri1j9fmkt-fill" stroke="none" fill="#f4f4f4"><g><text style="font-style: normal; font-variant-caps: normal; font-weight: normal; font-stretch: normal; font-size: 20px; line-height: normal; font-family: &quot;Shantell Sans&quot;, cursive; font-size-adjust: none; font-kerning: auto; font-variant-alternates: normal; font-variant-ligatures: normal; font-variant-numeric: normal; font-variant-east-asian: normal; font-variant-position: normal; font-variant-emoji: normal; font-feature-settings: normal; font-optical-sizing: auto; font-variation-settings: normal; white-space: pre;"><tspan x="15.16" y="35" dominant-baseline="ideographic">Integracja z systemami</tspan></text></g></g></g><g id="g-root-cu_8iam1j9l9u0-fill" data-item-order="0" transform="translate(346, 197.5)"></g><g id="g-root-cu_1lqiizi1j9l8ud-fill" data-item-order="0" transform="translate(464, 71.5)"></g><g id="g-root-cu_1lqiizi1j9l823-fill" data-item-order="0" transform="translate(520, 221.5)"></g><g id="g-root-tx_zarzdzan_1d3m5y61j9e9se-fill" data-item-order="0" transform="translate(46, 236.5)"><g id="tx_zarzdzan_1d3m5y61j9e9se-fill" stroke="none" fill="#f4f4f4"><g><text style="font-style: normal; font-variant-caps: normal; font-weight: normal; font-stretch: normal; font-size: 20px; line-height: normal; font-family: &quot;Shantell Sans&quot;, cursive; font-size-adjust: none; font-kerning: auto; font-variant-alternates: normal; font-variant-ligatures: normal; font-variant-numeric: normal; font-variant-east-asian: normal; font-variant-position: normal; font-variant-emoji: normal; font-feature-settings: normal; font-optical-sizing: auto; font-variation-settings: normal; white-space: pre;"><tspan x="17.05" y="35" dominant-baseline="ideographic">Zarządzanie serwerami </tspan><tspan x="74.05" y="59" dominant-baseline="ideographic">pocztowymi</tspan></text></g></g></g><g id="g-root-cu_1hap0v21j9l9mr-fill" data-item-order="0" transform="translate(304.631591796875, 224.5)"></g><g id="g-root-cu_18f20m61j9lafi-fill" data-item-order="0" transform="translate(304.631591796875, 224.5)"></g><g id="g-root-cu_13zuzku1j9l820-fill" data-item-order="0" transform="translate(580.923095703125, 248.5)"></g><g id="g-root-cu_13zuzku1j9l823-fill" data-item-order="0" transform="translate(580.923095703125, 248.5)"></g><g id="g-root-cu_v47zby1j9l9n0-fill" data-item-order="0" transform="translate(508.08697509765625, 548.5)"></g><g id="g-root-tx_konfigur_qn5j1a1j9focg-fill" data-item-order="0" transform="translate(598, 260.5)"><g id="tx_konfigur_qn5j1a1j9focg-fill" stroke="none" fill="#f4f4f4"><g><text style="font-style: normal; font-variant-caps: normal; font-weight: normal; font-stretch: normal; font-size: 20px; line-height: normal; font-family: &quot;Shantell Sans&quot;, cursive; font-size-adjust: none; font-kerning: auto; font-variant-alternates: normal; font-variant-ligatures: normal; font-variant-numeric: normal; font-variant-east-asian: normal; font-variant-position: normal; font-variant-emoji: normal; font-feature-settings: normal; font-optical-sizing: auto; font-variation-settings: normal; white-space: pre;"><tspan x="14.28" y="35" dominant-baseline="ideographic">Konfiguracja firewalli</tspan></text></g></g></g><g id="g-root-tx_zarzdzan_zisja61j9fmrz-fill" data-item-order="0" transform="translate(46, 296.5)"><g id="tx_zarzdzan_zisja61j9fmrz-fill" stroke="none" fill="#f4f4f4"><g><text style="font-style: normal; font-variant-caps: normal; font-weight: normal; font-stretch: normal; font-size: 20px; line-height: normal; font-family: &quot;Shantell Sans&quot;, cursive; font-size-adjust: none; font-kerning: auto; font-variant-alternates: normal; font-variant-ligatures: normal; font-variant-numeric: normal; font-variant-east-asian: normal; font-variant-position: normal; font-variant-emoji: normal; font-feature-settings: normal; font-optical-sizing: auto; font-variation-settings: normal; white-space: pre;"><tspan x="13.02" y="35" dominant-baseline="ideographic">Zarządzanie maszynami </tspan><tspan x="75.02" y="59" dominant-baseline="ideographic">wirtualnymi</tspan></text></g></g></g><g id="g-root-cu_v47zby1j9l9n3-fill" data-item-order="0" transform="translate(508.08697509765625, 548.5)"></g><g id="g-root-tx_zarzdzan_hs4zvi1j9flzd-fill" data-item-order="0" transform="translate(604, 296.5)"><g id="tx_zarzdzan_hs4zvi1j9flzd-fill" stroke="none" fill="#f4f4f4"><g><text style="font-style: normal; font-variant-caps: normal; font-weight: normal; font-stretch: normal; font-size: 20px; line-height: normal; font-family: &quot;Shantell Sans&quot;, cursive; font-size-adjust: none; font-kerning: auto; font-variant-alternates: normal; font-variant-ligatures: normal; font-variant-numeric: normal; font-variant-east-asian: normal; font-variant-position: normal; font-variant-emoji: normal; font-feature-settings: normal; font-optical-sizing: auto; font-variation-settings: normal; white-space: pre;"><tspan x="15.23" y="35" dominant-baseline="ideographic">Zarządzanie VPN</tspan></text></g></g></g><g id="g-root-cu_1q6c13y1j9l81t-fill" data-item-order="0" transform="translate(352, 353.5)"></g><g id="g-root-tx_automaty_140hgny1j9fls0-fill" data-item-order="0" transform="translate(536, 560.5)"><g id="tx_automaty_140hgny1j9fls0-fill" stroke="none" fill="#f4f4f4"><g><text style="font-style: normal; font-variant-caps: normal; font-weight: normal; font-stretch: normal; font-size: 20px; line-height: normal; font-family: &quot;Shantell Sans&quot;, cursive; font-size-adjust: none; font-kerning: auto; font-variant-alternates: normal; font-variant-ligatures: normal; font-variant-numeric: normal; font-variant-east-asian: normal; font-variant-position: normal; font-variant-emoji: normal; font-feature-settings: normal; font-optical-sizing: auto; font-variation-settings: normal; white-space: pre;"><tspan x="13.46" y="35" dominant-baseline="ideographic">Automatyzacja procesów</tspan></text></g></g></g><g id="g-root-tx_wsparcie_1cvhztq1j9fnda-fill" data-item-order="0" transform="translate(90, 584.5)"><g id="tx_wsparcie_1cvhztq1j9fnda-fill" stroke="none" fill="#f4f4f4"><g><text style="font-style: normal; font-variant-caps: normal; font-weight: normal; font-stretch: normal; font-size: 20px; line-height: normal; font-family: &quot;Shantell Sans&quot;, cursive; font-size-adjust: none; font-kerning: auto; font-variant-alternates: normal; font-variant-ligatures: normal; font-variant-numeric: normal; font-variant-east-asian: normal; font-variant-position: normal; font-variant-emoji: normal; font-feature-settings: normal; font-optical-sizing: auto; font-variation-settings: normal; white-space: pre;"><tspan x="12.3" y="35" dominant-baseline="ideographic">Wsparcie dla użytkowników</tspan></text></g></g></g><g id="g-root-cu_zk1hge1j9l8un-fill" data-item-order="0" transform="translate(372.5714416503906, 572.5)"></g><g id="g-root-cu_v47zby1j9l9my-fill" data-item-order="0" transform="translate(372.5714416503906, 572.5)"></g><g id="g-root-cu_1hap0v21j9l8uk-fill" data-item-order="0" transform="translate(408, 395.5)"></g><g id="g-root-cu_1hap0v21j9l8un-fill" data-item-order="0" transform="translate(458, 395.5)"></g><g id="g-root-cu_v47zby1j9laf7-fill" data-item-order="0" transform="translate(591.7142944335938, 400)"></g><g id="g-root-cu_m97g661j9l826-fill" data-item-order="0" transform="translate(591.7142944335938, 400)"></g><g id="g-root-tx_architek_1q6yi721j9flsc-fill" data-item-order="0" transform="translate(28, 434.5)"><g id="tx_architek_1q6yi721j9flsc-fill" stroke="none" fill="#f4f4f4"><g><text style="font-style: normal; font-variant-caps: normal; font-weight: normal; font-stretch: normal; font-size: 20px; line-height: normal; font-family: &quot;Shantell Sans&quot;, cursive; font-size-adjust: none; font-kerning: auto; font-variant-alternates: normal; font-variant-ligatures: normal; font-variant-numeric: normal; font-variant-east-asian: normal; font-variant-position: normal; font-variant-emoji: normal; font-feature-settings: normal; font-optical-sizing: auto; font-variation-settings: normal; white-space: pre;"><tspan x="17.03" y="35" dominant-baseline="ideographic">Architektura infrastruktury</tspan></text></g></g></g><g id="g-root-cu_zk1hge1j9l8ul-fill" data-item-order="0" transform="translate(298.3999938964844, 422.5)"></g><g id="g-root-cu_zk1hge1j9l8ui-fill" data-item-order="0" transform="translate(310.8999938964844, 422.5)"></g><g id="g-root-tx_projekto_2qen21j9fnd2-fill" data-item-order="0" transform="translate(620, 412)"><g id="tx_projekto_2qen21j9fnd2-fill" stroke="none" fill="#f4f4f4"><g><text style="font-style: normal; font-variant-caps: normal; font-weight: normal; font-stretch: normal; font-size: 20px; line-height: normal; font-family: &quot;Shantell Sans&quot;, cursive; font-size-adjust: none; font-kerning: auto; font-variant-alternates: normal; font-variant-ligatures: normal; font-variant-numeric: normal; font-variant-east-asian: normal; font-variant-position: normal; font-variant-emoji: normal; font-feature-settings: normal; font-optical-sizing: auto; font-variation-settings: normal; white-space: pre;"><tspan x="12.32" y="35" dominant-baseline="ideographic">Projektowanie aplikacji</tspan></text></g></g></g><g id="g-root-tx_administ_1lr502m1j9fmkl-fill" data-item-order="0" transform="translate(100, 470.5)"><g id="tx_administ_1lr502m1j9fmkl-fill" stroke="none" fill="#f4f4f4"><g><text style="font-style: normal; font-variant-caps: normal; font-weight: normal; font-stretch: normal; font-size: 20px; line-height: normal; font-family: &quot;Shantell Sans&quot;, cursive; font-size-adjust: none; font-kerning: auto; font-variant-alternates: normal; font-variant-ligatures: normal; font-variant-numeric: normal; font-variant-east-asian: normal; font-variant-position: normal; font-variant-emoji: normal; font-feature-settings: normal; font-optical-sizing: auto; font-variation-settings: normal; white-space: pre;"><tspan x="15.31" y="35" dominant-baseline="ideographic">Administracja sieci</tspan></text></g></g></g><g id="g-root-tx_rozwjapl_1q87gda1j9fnyn-fill" data-item-order="0" transform="translate(620, 448)"><g id="tx_rozwjapl_1q87gda1j9fnyn-fill" stroke="none" fill="#f4f4f4"><g><text style="font-style: normal; font-variant-caps: normal; font-weight: normal; font-stretch: normal; font-size: 20px; line-height: normal; font-family: &quot;Shantell Sans&quot;, cursive; font-size-adjust: none; font-kerning: auto; font-variant-alternates: normal; font-variant-ligatures: normal; font-variant-numeric: normal; font-variant-east-asian: normal; font-variant-position: normal; font-variant-emoji: normal; font-feature-settings: normal; font-optical-sizing: auto; font-variation-settings: normal; white-space: pre;"><tspan x="15.41" y="35" dominant-baseline="ideographic">Rozwój aplikacji</tspan></text></g></g></g><g id="g-root-cu_1lqiizi1j9l8ua-fill" data-item-order="0" transform="translate(420, 47.5)"></g><g id="g-root-tx_monitoro_v4ugf21j9fmkp-fill" data-item-order="0" transform="translate(530, 596.5)"><g id="tx_monitoro_v4ugf21j9fmkp-fill" stroke="none" fill="#f4f4f4"><g><text style="font-style: normal; font-variant-caps: normal; font-weight: normal; font-stretch: normal; font-size: 20px; line-height: normal; font-family: &quot;Shantell Sans&quot;, cursive; font-size-adjust: none; font-kerning: auto; font-variant-alternates: normal; font-variant-ligatures: normal; font-variant-numeric: normal; font-variant-east-asian: normal; font-variant-position: normal; font-variant-emoji: normal; font-feature-settings: normal; font-optical-sizing: auto; font-variation-settings: normal; white-space: pre;"><tspan x="14.09" y="35" dominant-baseline="ideographic">Monitorowanie baz danych</tspan></text></g></g></g><g id="g-root-cu_1lqiizi1j9l8ug-fill" data-item-order="2" transform="translate(520, 373)"></g><g id="g-root-tx_chmurowe_1hf2cgu1j9bfnu-fill" data-item-order="2000000000" transform="translate(536, 59.5)"><g id="tx_chmurowe_1hf2cgu1j9bfnu-fill" stroke="none" fill="#f4f4f4"><g><text style="font-style: normal; font-variant-caps: normal; font-weight: normal; font-stretch: normal; font-size: 20px; line-height: normal; font-family: &quot;Shantell Sans&quot;, cursive; font-size-adjust: none; font-kerning: auto; font-variant-alternates: normal; font-variant-ligatures: normal; font-variant-numeric: normal; font-variant-east-asian: normal; font-variant-position: normal; font-variant-emoji: normal; font-feature-settings: normal; font-optical-sizing: auto; font-variation-settings: normal; white-space: pre;"><tspan x="12.05" y="35" dominant-baseline="ideographic">Chmurowe wdrożenia</tspan></text></g></g></g><g id="g-root-tx_administ_1hckg4e1j9h2x0-fill" data-item-order="2000000000" transform="translate(46, 185.5)"><g id="tx_administ_1hckg4e1j9h2x0-fill" stroke="none" fill="#f4f4f4"><g><text style="font-style: normal; font-variant-caps: normal; font-weight: normal; font-stretch: normal; font-size: 20px; line-height: normal; font-family: &quot;Shantell Sans&quot;, cursive; font-size-adjust: none; font-kerning: auto; font-variant-alternates: normal; font-variant-ligatures: normal; font-variant-numeric: normal; font-variant-east-asian: normal; font-variant-position: normal; font-variant-emoji: normal; font-feature-settings: normal; font-optical-sizing: auto; font-variation-settings: normal; white-space: pre;"><tspan x="15.28" y="35" dominant-baseline="ideographic">Administracja serwerami</tspan></text></g></g></g><g id="g-root-sear_v63ela1j9h24t-fill" data-item-order="2000000000" transform="translate(304, 182.5)"></g><g id="g-root-1_v4vrtq1izg26i-fill" data-item-order="2000000000" transform="translate(568, 206.5)"></g><g id="g-root-tx_bezpiecz_18gca721izg0ll-fill" data-item-order="2000000000" transform="translate(604, 209.5)"><g id="tx_bezpiecz_18gca721izg0ll-fill" stroke="none" fill="#f4f4f4"><g><text style="font-style: normal; font-variant-caps: normal; font-weight: normal; font-stretch: normal; font-size: 20px; line-height: normal; font-family: &quot;Shantell Sans&quot;, cursive; font-size-adjust: none; font-kerning: auto; font-variant-alternates: normal; font-variant-ligatures: normal; font-variant-numeric: normal; font-variant-east-asian: normal; font-variant-position: normal; font-variant-emoji: normal; font-feature-settings: normal; font-optical-sizing: auto; font-variation-settings: normal; white-space: pre;"><tspan x="13.25" y="35" dominant-baseline="ideographic">Bezpieczeństwo systemów</tspan></text></g></g></g><g id="g-root-plur_1448b6m1j9be2z-fill" data-item-order="2000000000" transform="translate(500, 56.5)"></g><g id="g-root-serv_4mc2ou1izd8ng-fill" data-item-order="2000000000" transform="translate(424, 293.5)"></g><g id="g-root-tx_usugiit_qst47y1izd9fn-fill" data-item-order="2000000000" transform="translate(400, 347.5)"><g id="tx_usugiit_qst47y1izd9fn-fill" stroke="none" fill="#f4f4f4"><g><text style="font-style: normal; font-variant-caps: normal; font-weight: normal; font-stretch: normal; font-size: 20px; line-height: normal; font-family: &quot;Shantell Sans&quot;, cursive; font-size-adjust: none; font-kerning: auto; font-variant-alternates: normal; font-variant-ligatures: normal; font-variant-numeric: normal; font-variant-east-asian: normal; font-variant-position: normal; font-variant-emoji: normal; font-feature-settings: normal; font-optical-sizing: auto; font-variation-settings: normal; white-space: pre;"><tspan x="13.08" y="35" dominant-baseline="ideographic">Usługi IT</tspan></text></g></g></g><g id="g-root-apps_1cxdf321j9cutq-fill" data-item-order="2000000000" transform="translate(578, 358)"></g><g id="g-root-tx_projekto_1um5j8e1j9ifpr-fill" data-item-order="2000000000" transform="translate(4, 383.5)"><g id="tx_projekto_1um5j8e1j9ifpr-fill" stroke="none" fill="#f4f4f4"><g><text style="font-style: normal; font-variant-caps: normal; font-weight: normal; font-stretch: normal; font-size: 20px; line-height: normal; font-family: &quot;Shantell Sans&quot;, cursive; font-size-adjust: none; font-kerning: auto; font-variant-alternates: normal; font-variant-ligatures: normal; font-variant-numeric: normal; font-variant-east-asian: normal; font-variant-position: normal; font-variant-emoji: normal; font-feature-settings: normal; font-optical-sizing: auto; font-variation-settings: normal; white-space: pre;"><tspan x="13.38" y="35" dominant-baseline="ideographic">Projektowanie architektury IT</tspan></text></g></g></g><g id="g-root-2_1cvhztq1j9iex4-fill" data-item-order="2000000000" transform="translate(310, 380.5)"></g><g id="g-root-tx_tworzeni_3cvq61j9csn9-fill" data-item-order="2000000000" transform="translate(614, 361)"><g id="tx_tworzeni_3cvq61j9csn9-fill" stroke="none" fill="#f4f4f4"><g><text style="font-style: normal; font-variant-caps: normal; font-weight: normal; font-stretch: normal; font-size: 20px; line-height: normal; font-family: &quot;Shantell Sans&quot;, cursive; font-size-adjust: none; font-kerning: auto; font-variant-alternates: normal; font-variant-ligatures: normal; font-variant-numeric: normal; font-variant-east-asian: normal; font-variant-position: normal; font-variant-emoji: normal; font-feature-settings: normal; font-optical-sizing: auto; font-variation-settings: normal; white-space: pre;"><tspan x="12.27" y="35" dominant-baseline="ideographic">Tworzenie aplikacji webowych</tspan></text></g></g></g><g id="g-root-1_i0vn321j9jw26-fill" data-item-order="2000000000" transform="translate(378, 32.5)"></g><g id="g-root-up_vagq721j98n45-fill" data-item-order="2000000000" transform="translate(494, 506.5)"></g><g id="g-root-tx_wsparcie_4hxfoe1j9juo2-fill" data-item-order="2000000000" transform="translate(156, 533.5)"><g id="tx_wsparcie_4hxfoe1j9juo2-fill" stroke="none" fill="#f4f4f4"><g><text style="font-style: normal; font-variant-caps: normal; font-weight: normal; font-stretch: normal; font-size: 20px; line-height: normal; font-family: &quot;Shantell Sans&quot;, cursive; font-size-adjust: none; font-kerning: auto; font-variant-alternates: normal; font-variant-ligatures: normal; font-variant-numeric: normal; font-variant-east-asian: normal; font-variant-position: normal; font-variant-emoji: normal; font-feature-settings: normal; font-optical-sizing: auto; font-variation-settings: normal; white-space: pre;"><tspan x="13.4" y="35" dominant-baseline="ideographic">Wsparcie techniczne</tspan></text></g></g></g><g id="g-root-wren_1hckg4e1j9jtor-fill" data-item-order="2000000000" transform="translate(366, 530.5)"></g><g id="g-root-tx_utrzyman_1d1qqou1j98kr0-fill" data-item-order="2000000000" transform="translate(530, 509.5)"><g id="tx_utrzyman_1d1qqou1j98kr0-fill" stroke="none" fill="#f4f4f4"><g><text style="font-style: normal; font-variant-caps: normal; font-weight: normal; font-stretch: normal; font-size: 20px; line-height: normal; font-family: &quot;Shantell Sans&quot;, cursive; font-size-adjust: none; font-kerning: auto; font-variant-alternates: normal; font-variant-ligatures: normal; font-variant-numeric: normal; font-variant-east-asian: normal; font-variant-position: normal; font-variant-emoji: normal; font-feature-settings: normal; font-optical-sizing: auto; font-variation-settings: normal; white-space: pre;"><tspan x="13.44" y="35" dominant-baseline="ideographic">Utrzymanie baz danych</tspan></text></g></g></g><g id="g-root-tx_automaty_vcc5ge1j9juh9-fill" data-item-order="2000000000" transform="translate(84, 35.5)"><g id="tx_automaty_vcc5ge1j9juh9-fill" stroke="none" fill="#f4f4f4"><g><text style="font-style: normal; font-variant-caps: normal; font-weight: normal; font-stretch: normal; font-size: 20px; line-height: normal; font-family: &quot;Shantell Sans&quot;, cursive; font-size-adjust: none; font-kerning: auto; font-variant-alternates: normal; font-variant-ligatures: normal; font-variant-numeric: normal; font-variant-east-asian: normal; font-variant-position: normal; font-variant-emoji: normal; font-feature-settings: normal; font-optical-sizing: auto; font-variation-settings: normal; white-space: pre;"><tspan x="16.41" y="35" dominant-baseline="ideographic">Automatyzacja procesów IT</tspan></text></g></g></g><g id="g-root-ro_1cxdf321j9cutr-stroke" data-item-order="-19440" transform="translate(566, 346)"><g id="ro_1cxdf321j9cutr-stroke" fill="none" stroke-linecap="round" stroke-linejoin="round" stroke-miterlimit="4" stroke="#f4f4f4" stroke-width="4"><g><path d="M 22 10C 40.3 10.4 58.7 10.4 77 10C 96 9.6 115.1 10.6 134.1 10C 153.2 9.4 172.2 9.6 191.3 10C 208.2 10.4 225.3 11.4 242.1 10C 259.7 8.5 277.5 10.6 295.1 10C 316.1 9.3 337.1 11.2 358 10C 358 10 368.8 10.1 370 22C 371 32 370.6 42 370 52C 370 52 370 64.3 358 64C 344.4 63.7 330.7 62.8 317.1 64C 303.5 65.3 289.8 65 276.2 64C 263.1 63.1 249.8 65.5 236.8 64C 223.4 62.4 209.8 65 196.4 64C 181.2 62.9 165.9 65.2 150.7 64C 137.3 62.9 123.7 64.7 110.3 64C 96.6 63.3 82.8 64.9 69.2 64C 53.5 62.9 37.7 64.8 22 64C 22 64 9 64 10 52C 10.8 42 9.1 32 10 22C 10 22 10.1 11.6 22 10"></path><path d="M 22 10L 358 10C 358 10 370 10 370 22L 370 52C 370 52 370 64 358 64L 22 64C 22 64 10 64 10 52L 10 22C 10 22 10 10 22 10"></path></g></g></g><g id="g-root-ro_18fohpa1j9ifpd-stroke" data-item-order="-19440" transform="translate(-8, 368.5)"><g id="ro_18fohpa1j9ifpd-stroke" fill="none" stroke-linecap="round" stroke-linejoin="round" stroke-miterlimit="4" stroke="#f4f4f4" stroke-width="4"><g><path d="M 22 10C 38.7 8.3 55.7 9 72.5 10C 88.8 11 105.3 11.7 121.6 10C 135.9 8.5 150.4 10.3 164.9 10C 182 9.7 199.2 11.9 216.2 10C 230.5 8.4 245 9.4 259.4 10C 274.4 10.6 289.4 10.9 304.3 10C 322.2 8.9 340.1 10.9 358 10C 358 10 369.4 10 370 22C 370.5 32 372 42.2 370 52C 370 52 370 63 358 64C 341.6 65.3 325 64.3 308.6 64C 292.3 63.7 275.9 63 259.6 64C 244.5 64.9 229.3 65.5 214.3 64C 198.6 62.5 182.6 63 166.9 64C 151.5 65 136 65.8 120.8 64C 103.6 61.9 86.1 63.1 68.9 64C 53.3 64.8 37.6 63.5 22 64C 22 64 8.7 63.9 10 52C 11 42.1 9.7 32 10 22C 10 22 10 10.2 22 10"></path><path d="M 22 10L 358 10C 358 10 370 10 370 22L 370 52C 370 52 370 64 358 64L 22 64C 22 64 10 64 10 52L 10 22C 10 22 10 10 22 10"></path></g></g></g><g id="g-root-ro_dbp0ny1j9l893-stroke" data-item-order="-18792" transform="translate(72, 20.5)"><g id="ro_dbp0ny1j9l893-stroke" fill="none" stroke-linecap="round" stroke-linejoin="round" stroke-miterlimit="4" stroke="#f4f4f4" stroke-width="4"><g><path d="M 22 10C 46.8 10.4 71.7 11.6 96.5 10C 125.3 8.1 154.3 11.1 183.1 10C 210.8 8.9 238.6 8.2 266.3 10C 292.8 11.7 319.5 11.5 346 10C 346 10 356.3 10.1 358 22C 359.4 31.9 359 42 358 52C 358 52 358 65 346 64C 320.2 61.9 294.1 62.1 268.2 64C 242.9 65.9 217.5 63.6 192.1 64C 162.5 64.5 132.9 63.9 103.2 64C 76.1 64.1 49.1 64.4 22 64C 22 64 8.4 63.9 10 52C 11.3 42.1 11.8 31.8 10 22C 10 22 10 9.2 22 10"></path><path d="M 22 10L 346 10C 346 10 358 10 358 22L 358 52C 358 52 358 64 346 64L 22 64C 22 64 10 64 10 52L 10 22C 10 22 10 10 22 10"></path></g></g></g><g id="g-root-ro_1qbzmam1izda19-stroke" data-item-order="-18144" transform="translate(376, 269.5)"><g id="ro_1qbzmam1izda19-stroke" fill="none" stroke-linecap="round" stroke-linejoin="round" stroke-miterlimit="4" stroke="#f4f4f4" stroke-width="4"><g><path d="M 34 10C 66 9.2 98 10.4 130 10C 130 10 153.8 10 154 34C 154.2 60 153.7 86 154 112C 154 112 153.9 134 130 136C 114.2 137.3 98.2 137 82.4 136C 66.3 135 50.1 135.8 34 136C 34 136 8.9 136 10 112C 11.2 86 9.5 60 10 34C 10 34 10.1 8.3 34 10"></path><path d="M 34 10L 130 10C 130 10 154 10 154 34L 154 112C 154 112 154 136 130 136L 34 136C 34 136 10 136 10 112L 10 34C 10 34 10 10 34 10"></path></g></g></g><g id="g-root-ro_qp29pa1izg2yr-stroke" data-item-order="-17496" transform="translate(556, 194.5)"><g id="ro_qp29pa1izg2yr-stroke" fill="none" stroke-linecap="round" stroke-linejoin="round" stroke-miterlimit="4" stroke="#f4f4f4" stroke-width="4"><g><path d="M 22 10C 35.7 10.5 49.4 10.5 63.1 10C 77.5 9.5 92.1 8.2 106.4 10C 121 11.9 135.8 9.9 150.5 10C 164.8 10 179.2 8.3 193.4 10C 208.9 11.8 224.6 9.5 240.2 10C 252.5 10.4 264.8 10.1 277.1 10C 292.1 9.9 307 10.3 322 10C 322 10 332.8 10.1 334 22C 335 31.9 333.1 42 334 52C 334 52 334 64.8 322 64C 308.6 63.1 295 62.5 281.7 64C 269.8 65.3 257.6 62.7 245.7 64C 233.4 65.3 220.8 62.2 208.5 64C 196.5 65.7 184.3 64.5 172.2 64C 159.9 63.5 147.6 63.8 135.2 64C 123.2 64.2 111.3 64.6 99.3 64C 87.3 63.4 75.1 65.4 63.2 64C 49.6 62.4 35.7 63.6 22 64C 22 64 11.1 64 10 52C 9.1 42 11.2 31.9 10 22C 10 22 10 10.4 22 10"></path><path d="M 22 10L 322 10C 322 10 334 10 334 22L 334 52C 334 52 334 64 322 64L 22 64C 22 64 10 64 10 52L 10 22C 10 22 10 10 22 10"></path></g></g></g><g id="g-root-ro_v63ela1j9h24u-stroke" data-item-order="-16848" transform="translate(34, 170.5)"><g id="ro_v63ela1j9h24u-stroke" fill="none" stroke-linecap="round" stroke-linejoin="round" stroke-miterlimit="4" stroke="#f4f4f4" stroke-width="4"><g><path d="M 22 10C 34.8 9.2 47.6 10.8 60.3 10C 75.5 9 90.7 8.6 105.8 10C 118.9 11.2 132 9.9 145.1 10C 158.4 10.1 171.7 10.5 185 10C 199.8 9.5 214.7 8.5 229.5 10C 241.6 11.2 253.8 10.7 265.9 10C 280.6 9.1 295.3 10.3 310 10C 310 10 324 10.2 322 22C 320.4 31.9 321.6 42 322 52C 322 52 322 64.3 310 64C 284.2 63.3 258.4 65 232.6 64C 208.7 63 184.7 62.8 160.8 64C 138.6 65.1 116.2 62.8 94 64C 70 65.3 46 64.8 22 64C 22 64 8.9 64 10 52C 10.9 42 10.9 32 10 22C 10 22 10 9.7 22 10"></path><path d="M 22 10L 310 10C 310 10 322 10 322 22L 322 52C 322 52 322 64 310 64L 22 64C 22 64 10 64 10 52L 10 22C 10 22 10 10 22 10"></path></g></g></g><g id="g-root-ro_vagq721j98n46-stroke" data-item-order="-16200" transform="translate(482, 494.5)"><g id="ro_vagq721j98n46-stroke" fill="none" stroke-linecap="round" stroke-linejoin="round" stroke-miterlimit="4" stroke="#f4f4f4" stroke-width="4"><g><path d="M 22 10C 46.7 8.4 71.6 8.5 96.3 10C 120.5 11.5 144.8 11.2 168.9 10C 188.7 9 208.4 10.9 228.2 10C 251.4 9 274.7 9.7 298 10C 298 10 309.1 10 310 22C 310.8 32 310 42 310 52C 310 52 310 63.8 298 64C 281.7 64.3 265.3 64 249 64C 233.6 64 218.3 63.2 203 64C 187 64.9 170.9 62.4 154.9 64C 140.9 65.4 126.7 64.2 112.6 64C 97.3 63.8 82 65.3 66.7 64C 51.9 62.7 36.9 63.8 22 64C 22 64 11.2 63.9 10 52C 9 42.1 9.9 32 10 22C 10 22 10.1 11.1 22 10"></path><path d="M 22 10L 298 10C 298 10 310 10 310 22L 310 52C 310 52 310 64 298 64L 22 64C 22 64 10 64 10 52L 10 22C 10 22 10 10 22 10"></path></g></g></g><g id="g-root-ro_zoet261j9bev8-stroke" data-item-order="-14904" transform="translate(488, 44.5)"><g id="ro_zoet261j9bev8-stroke" fill="none" stroke-linecap="round" stroke-linejoin="round" stroke-miterlimit="4" stroke="#f4f4f4" stroke-width="4"><g><path d="M 22 10C 50.4 8.1 79 9.7 107.5 10C 137.4 10.4 167.4 8.1 197.3 10C 222.8 11.6 248.4 9.8 274 10C 274 10 285.8 10 286 22C 286.2 32 284.7 42.1 286 52C 286 52 286 64.5 274 64C 252.8 63.2 231.7 64.4 210.5 64C 188.4 63.6 166.4 65.3 144.3 64C 124.2 62.8 104 64.9 83.8 64C 63.3 63 42.6 65 22 64C 22 64 10 64 10 52C 10 42 9.9 32 10 22C 10 22 10.1 11.7 22 10"></path><path d="M 22 10L 274 10C 274 10 286 10 286 22L 286 52C 286 52 286 64 274 64L 22 64C 22 64 10 64 10 52L 10 22C 10 22 10 10 22 10"></path></g></g></g><g id="g-root-ro_1cwqxzy1j9juh0-stroke" data-item-order="-14256" transform="translate(144, 518.5)"><g id="ro_1cwqxzy1j9juh0-stroke" fill="none" stroke-linecap="round" stroke-linejoin="round" stroke-miterlimit="4" stroke="#f4f4f4" stroke-width="4"><g><path d="M 22 10C 46.5 10.6 71.1 11.6 95.6 10C 120.9 8.4 146.4 12 171.7 10C 201.7 7.6 231.9 8.6 262 10C 262 10 274.3 10 274 22C 273.7 32 273.5 42 274 52C 274 52 274 64.2 262 64C 240.6 63.6 219.1 62.2 197.7 64C 179.9 65.5 162 64.9 144.2 64C 122.5 62.9 100.6 63.7 78.8 64C 59.9 64.3 40.9 63.1 22 64C 22 64 11 64 10 52C 9.1 42 9.9 32 10 22C 10 22 10 9.6 22 10"></path><path d="M 22 10L 262 10C 262 10 274 10 274 22L 274 52C 274 52 274 64 262 64L 22 64C 22 64 10 64 10 52L 10 22C 10 22 10 10 22 10"></path></g></g></g><g id="g-root-tx_rozwizyw_18fohpa1j9fo5j-stroke" data-item-order="0" transform="translate(90, 620.5)"></g><g id="g-root-tx_optymali_qp0yam1j9fncy-stroke" data-item-order="0" transform="translate(120, 86.5)"></g><g id="g-root-cu_zk1hge1j9l9mp-stroke" data-item-order="0" transform="translate(366.3157958984375, 74.5)"><g id="cu_zk1hge1j9l9mp-stroke" fill="none" stroke-linecap="round" stroke-linejoin="round" stroke-miterlimit="4" stroke="#f4f4f4" stroke-width="2" stroke-dasharray="5.0, 7.0"><g><path d="M 36.9 10C 36.9 14 36.3 18 36.9 22C 37.5 26 36.9 30 36.9 34C 32.5 33.4 27.8 32.8 23.5 34C 19.2 35.2 14.4 34.9 10 34"></path><path d="M 36.9 10L 36.9 22L 36.9 34L 23.5 34L 10 34"></path></g></g></g><g id="g-root-cu_qoeh7i1j9lafg-stroke" data-item-order="0" transform="translate(372.70587158203125, 74.5)"><g id="cu_qoeh7i1j9lafg-stroke" fill="none" stroke-linecap="round" stroke-linejoin="round" stroke-miterlimit="4" stroke="#f4f4f4" stroke-width="2" stroke-dasharray="5.0, 7.0"><g><path d="M 30.5 10C 30.8 12.5 30 15.1 30.5 17.5C 33.1 30.7 31.7 44.5 30.5 58C 29.9 64.6 25.1 70.7 18.5 70C 15.6 69.7 12.8 70 10 70"></path><path d="M 30.5 10L 30.5 17.5L 30.5 58C 30.499999 64.627415 25.127416 69.999998 18.5 69.999998L 18.4 70L 10 70"></path></g></g></g><g id="g-root-cu_v47zby1j9laf5-stroke" data-item-order="0" transform="translate(511.33331298828125, 98.5)"><g id="cu_v47zby1j9laf5-stroke" fill="none" stroke-linecap="round" stroke-linejoin="round" stroke-miterlimit="4" stroke="#f4f4f4" stroke-width="2" stroke-dasharray="5.0, 7.0"><g><path d="M 11.8 10C 11.5 11.2 11.5 12.6 11.8 13.8C 13 18.4 11.6 23.3 11.8 28C 11.5 29.8 11.4 31.8 11.5 34C 11 36 10.9 38 10.9 40C 10.6 42 9.9 44 10.2 46C 9.3 48 10.1 50.2 10 52C 9.8 54.6 10.1 57.1 10 59.6C 9.7 65.3 14.7 69.7 20.4 70C 21 70 21.5 70 22 70"></path><path d="M 11.8 10L 11.8 13.8L 11.8 28C 11.76756 29.830744 11.667102 31.839908 11.500001 34L 10.9 40L 10.2 46C 10.059117 48.186406 9.992114 50.196471 10.000001 51.999999L 10 52.1L 10 59.6C 9.999999 65.343759 14.656237 69.999998 20.399999 69.999998L 20.5 70L 22 70"></path></g></g></g><g id="g-root-cu_qoeh7i1j9lafi-stroke" data-item-order="0" transform="translate(513.0908813476562, 98.5)"><g id="cu_qoeh7i1j9lafi-stroke" fill="none" stroke-linecap="round" stroke-linejoin="round" stroke-miterlimit="4" stroke="#f4f4f4" stroke-width="2" stroke-dasharray="5.0, 7.0"><g><path d="M 10 10C 8.9 13.8 10.3 18 10 22C 9.7 26 9.9 30 10 34C 11.7 34 13.4 34.6 15 34C 16.6 33.4 18.4 34 20.1 34"></path><path d="M 10 10L 10 22L 10 34L 15 34L 20.1 34"></path></g></g></g><g id="g-root-tx_wdraanie_htdy1q1j9fo5n-stroke" data-item-order="0" transform="translate(138, 122.5)"></g><g id="g-root-tx_rozwizan_de6x0e1j9fls4-stroke" data-item-order="0" transform="translate(530, 110.5)"></g><g id="g-root-tx_integrac_4ijwri1j9fmkt-stroke" data-item-order="0" transform="translate(530, 146.5)"></g><g id="g-root-cu_8iam1j9l9u0-stroke" data-item-order="0" transform="translate(346, 197.5)"><g id="cu_8iam1j9l9u0-stroke" fill="none" stroke-linecap="round" stroke-linejoin="round" stroke-miterlimit="4" stroke="#f4f4f4" stroke-width="2" stroke-dasharray="5.0, 7.0"><g><path d="M 40 124C 39 124.2 38 123.8 37 124C 25.5 126 16.3 114.6 16 103.1C 15.9 99 15.2 94.9 16 91C 16.8 87.1 16.8 82.7 18.3 78.2C 19.2 75.5 21.8 71.6 25 67C 28.2 62.4 30.9 58.5 31.7 55.8C 33.1 51.2 33.4 46.9 34 43C 34.6 38.9 35 34.8 34 30.9C 31.3 19.7 24.6 10.9 13.1 10C 12 9.9 11 9.7 10 10"></path><path d="M 40 124L 37 124L 36.9 124C 25.357251 124.000006 16.000001 114.642757 16.000002 103.100004L 16 103L 16 91C 15.991897 87.057448 16.772194 82.71493 18.299996 78.200001C 19.233103 75.485395 21.606563 71.51782 25.000003 67C 28.393444 62.48218 30.766904 58.514605 31.700003 55.8C 33.227801 51.285071 34.008097 46.942553 33.999999 43L 34 42.9L 34 30.9C 33.999998 19.357248 24.64275 10 13.1 10L 13 10L 10 10"></path></g></g></g><g id="g-root-cu_1lqiizi1j9l8ud-stroke" data-item-order="0" transform="translate(464, 71.5)"><g id="cu_1lqiizi1j9l8ud-stroke" fill="none" stroke-linecap="round" stroke-linejoin="round" stroke-miterlimit="4" stroke="#f4f4f4" stroke-width="2" stroke-dasharray="5.0, 7.0"><g><path d="M 18 208C 18.7 203.9 16.5 199.4 18 195.6C 25.6 176.2 19.7 153.8 18 133C 17.7 129.3 19.1 124.8 17 120.8C 15.7 118.4 14.6 114.2 14 109C 13.4 103.8 10.7 99.9 11 97.2C 11.5 92.8 9.2 88.6 10 85C 14 67.4 9.3 48.9 10 30.9C 10.5 19.4 19.4 9.9 30.9 10C 32 10 33 10 34 10"></path><path d="M 18 208L 18 195.6L 18 133C 18.004097 129.307854 17.668342 125.211641 17.000003 120.8C 16.580731 118.13864 15.527668 113.996593 13.999998 109.000001C 12.472328 104.003409 11.419266 99.861363 10.999998 97.200001C 10.331663 92.788358 9.995908 88.692146 10.000002 85L 10 84.9L 10 30.9C 10 19.357248 19.357248 10 30.899998 10L 31 10L 34 10"></path></g></g></g><g id="g-root-cu_1lqiizi1j9l823-stroke" data-item-order="0" transform="translate(520, 221.5)"><g id="cu_1lqiizi1j9l823-stroke" fill="none" stroke-linecap="round" stroke-linejoin="round" stroke-miterlimit="4" stroke="#f4f4f4" stroke-width="2" stroke-dasharray="5.0, 7.0"><g><path d="M 10 100C 10.9 100.1 11.9 99.8 12.8 100C 23.5 102 33.7 91.2 32.5 80.4C 32.4 79.3 32.5 78.4 32.5 77.4C 32.6 73.9 32.6 70 31.4 66C 30.7 63.6 29.5 59.7 28 55C 26.4 50.3 25.1 46.4 24.6 44C 23.7 39.9 24.3 36 23.5 32.6C 23.3 31.6 23.9 30.5 23.5 29.6C 19.5 19.5 32.4 8.5 43.1 10C 44.1 10.1 45.1 9.9 46 10"></path><path d="M 10 100L 12.8 100L 12.9 100C 23.724781 100.000005 32.500001 91.224785 32.500001 80.400004L 32.5 80.3L 32.5 77.4C 32.514073 73.945997 32.144288 70.113681 31.399999 65.999999C 30.940522 63.545609 29.743631 59.673316 27.999999 54.999997C 26.256366 50.326679 25.059476 46.454386 24.599999 43.999998C 23.85571 39.886317 23.485925 36.054 23.5 32.599999L 23.5 32.5L 23.5 29.6C 23.499999 18.775219 32.275219 10 43.1 10L 43.2 10L 46 10"></path></g></g></g><g id="g-root-tx_zarzdzan_1d3m5y61j9e9se-stroke" data-item-order="0" transform="translate(46, 236.5)"></g><g id="g-root-cu_1hap0v21j9l9mr-stroke" data-item-order="0" transform="translate(304.631591796875, 224.5)"><g id="cu_1hap0v21j9l9mr-stroke" fill="none" stroke-linecap="round" stroke-linejoin="round" stroke-miterlimit="4" stroke="#f4f4f4" stroke-width="2" stroke-dasharray="5.0, 7.0"><g><path d="M 25.4 10C 25.9 16 24.6 22.1 25.4 28C 26.2 33.9 25.1 40 25.4 46C 22.9 46.8 20.1 46.9 17.7 46C 15.3 45.1 12.4 45.2 10 46"></path><path d="M 25.4 10L 25.4 28L 25.4 46L 17.7 46L 10 46"></path></g></g></g><g id="g-root-cu_18f20m61j9lafi-stroke" data-item-order="0" transform="translate(304.631591796875, 224.5)"><g id="cu_18f20m61j9lafi-stroke" fill="none" stroke-linecap="round" stroke-linejoin="round" stroke-miterlimit="4" stroke="#f4f4f4" stroke-width="2" stroke-dasharray="5.0, 7.0"><g><path d="M 25.4 10C 26.4 13.9 26.3 18.1 25.4 22C 19.8 45.3 24 70 25.4 94C 25.8 100.6 20 106 13.4 106C 12.2 106 11.1 106 10 106"></path><path d="M 25.4 10L 25.4 22L 25.4 94C 25.400002 100.627415 20.027419 105.999998 13.400002 105.999998L 13.3 106L 10 106"></path></g></g></g><g id="g-root-cu_13zuzku1j9l820-stroke" data-item-order="0" transform="translate(580.923095703125, 248.5)"><g id="cu_13zuzku1j9l820-stroke" fill="none" stroke-linecap="round" stroke-linejoin="round" stroke-miterlimit="4" stroke="#f4f4f4" stroke-width="2" stroke-dasharray="5.0, 7.0"><g><path d="M 10 10C 10.4 14 8.7 18.2 10 22C 11.3 25.8 10 30 10 34C 11.6 34.6 13.5 33.5 15.2 34C 16.8 34.5 18.6 34 20.3 34"></path><path d="M 10 10L 10 22L 10 34L 15.2 34L 20.3 34"></path></g></g></g><g id="g-root-cu_13zuzku1j9l823-stroke" data-item-order="0" transform="translate(580.923095703125, 248.5)"><g id="cu_13zuzku1j9l823-stroke" fill="none" stroke-linecap="round" stroke-linejoin="round" stroke-miterlimit="4" stroke="#f4f4f4" stroke-width="2" stroke-dasharray="5.0, 7.0"><g><path d="M 10 10C 9.9 12.5 9.4 15.1 10 17.5C 13.1 30.6 10.7 44.5 10 58C 9.7 64.6 15.7 71.9 22 70C 23.5 69.5 25.1 70.1 26.6 70"></path><path d="M 10 10L 10 17.5L 10 58C 10.000002 64.627417 15.372585 70 22.000002 69.999999L 22.1 70L 26.6 70"></path></g></g></g><g id="g-root-cu_v47zby1j9l9n0-stroke" data-item-order="0" transform="translate(508.08697509765625, 548.5)"><g id="cu_v47zby1j9l9n0-stroke" fill="none" stroke-linecap="round" stroke-linejoin="round" stroke-miterlimit="4" stroke="#f4f4f4" stroke-width="2" stroke-dasharray="5.0, 7.0"><g><path d="M 10 10C 10.3 14 9.4 18 10 22C 10.6 26 9.7 30 10 34C 13.5 34.8 17.3 34.8 20.8 34C 24.3 33.2 28 33.7 31.6 34"></path><path d="M 10 10L 10 22L 10 34L 20.8 34L 31.6 34"></path></g></g></g><g id="g-root-tx_konfigur_qn5j1a1j9focg-stroke" data-item-order="0" transform="translate(598, 260.5)"></g><g id="g-root-tx_zarzdzan_zisja61j9fmrz-stroke" data-item-order="0" transform="translate(46, 296.5)"></g><g id="g-root-cu_v47zby1j9l9n3-stroke" data-item-order="0" transform="translate(508.08697509765625, 548.5)"><g id="cu_v47zby1j9l9n3-stroke" fill="none" stroke-linecap="round" stroke-linejoin="round" stroke-miterlimit="4" stroke="#f4f4f4" stroke-width="2" stroke-dasharray="5.0, 7.0"><g><path d="M 10 10C 10.6 12.4 9.2 15.1 10 17.5C 14.5 30.2 9.4 44.5 10 58C 10.3 64.6 15.4 69.3 22 70C 23.2 70.1 24.2 70.1 25.3 70"></path><path d="M 10 10L 10 17.5L 10 58C 10.000002 64.627417 15.372585 70 22.000002 69.999999L 22.1 70L 25.3 70"></path></g></g></g><g id="g-root-tx_zarzdzan_hs4zvi1j9flzd-stroke" data-item-order="0" transform="translate(604, 296.5)"></g><g id="g-root-cu_1q6c13y1j9l81t-stroke" data-item-order="0" transform="translate(352, 353.5)"><g id="cu_1q6c13y1j9l81t-stroke" fill="none" stroke-linecap="round" stroke-linejoin="round" stroke-miterlimit="4" stroke="#f4f4f4" stroke-width="2" stroke-dasharray="5.0, 7.0"><g><path d="M 34 10C 33.5 9.9 33 10.1 32.5 10C 26.7 9.4 21.2 14.7 22 20.4C 23 27.5 22.7 34.6 22 41.6C 21.5 47.3 17.3 52.5 11.6 52C 11 52 10.5 52 10 52"></path><path d="M 34 10L 32.5 10L 32.4 10C 26.656239 10 22 14.656238 22 20.4L 22 20.5L 22 41.6C 22.000001 47.343764 17.343762 52.000003 11.6 52.000002L 11.5 52L 10 52"></path></g></g></g><g id="g-root-tx_automaty_140hgny1j9fls0-stroke" data-item-order="0" transform="translate(536, 560.5)"></g><g id="g-root-tx_wsparcie_1cvhztq1j9fnda-stroke" data-item-order="0" transform="translate(90, 584.5)"></g><g id="g-root-cu_zk1hge1j9l8un-stroke" data-item-order="0" transform="translate(372.5714416503906, 572.5)"><g id="cu_zk1hge1j9l8un-stroke" fill="none" stroke-linecap="round" stroke-linejoin="round" stroke-miterlimit="4" stroke="#f4f4f4" stroke-width="2" stroke-dasharray="5.0, 7.0"><g><path d="M 20.3 10C 20.1 14 21.1 18.1 20.3 22C 19.5 25.9 20.3 30 20.3 34C 18.7 33.4 16.8 34.4 15.1 34C 13.5 33.6 11.7 33.9 10 34"></path><path d="M 20.3 10L 20.3 22L 20.3 34L 15.1 34L 10 34"></path></g></g></g><g id="g-root-cu_v47zby1j9l9my-stroke" data-item-order="0" transform="translate(372.5714416503906, 572.5)"><g id="cu_v47zby1j9l9my-stroke" fill="none" stroke-linecap="round" stroke-linejoin="round" stroke-miterlimit="4" stroke="#f4f4f4" stroke-width="2" stroke-dasharray="5.0, 7.0"><g><path d="M 20.3 10C 20.1 11.3 19.9 12.6 20.3 13.8C 21.9 18.3 20.4 23.3 20.3 28C 20.2 29.8 20.8 31.8 20.5 34C 20 36 21.3 38 21.1 40C 20.8 42 21.8 44 21.8 46C 21.5 48.2 22 50.2 22 52C 22 54.6 21.7 57.1 22 59.6C 22.6 65.3 17.3 70.1 11.6 70C 11 70 10.5 70 10 70"></path><path d="M 20.3 10L 20.3 13.8L 20.3 28C 20.29492 29.807403 20.361915 31.817263 20.5 33.999999L 21.1 40L 21.8 46C 21.938086 48.182736 22.005081 50.192595 22.000001 51.999999L 22 52.1L 22 59.6C 21.999998 65.343759 17.34376 69.999998 11.599999 69.999998L 11.5 70L 10 70"></path></g></g></g><g id="g-root-cu_1hap0v21j9l8uk-stroke" data-item-order="0" transform="translate(408, 395.5)"><g id="cu_1hap0v21j9l8uk-stroke" fill="none" stroke-linecap="round" stroke-linejoin="round" stroke-miterlimit="4" stroke="#f4f4f4" stroke-width="2" stroke-dasharray="5.0, 7.0"><g><path d="M 26 10C 25.9 13.1 25.1 16.4 26 19.4C 29.8 32.7 24.7 47.2 26 61C 26.3 64.7 27 68.7 27 73.2C 27 75.9 29 79.9 30 85C 31 90.1 32 94.3 33 96.8C 34.6 101 33.5 105.3 34 109C 35.5 119 35.5 129.2 34 139.1C 32.3 150.5 24.6 159.5 13.1 160C 12 160 11 160.3 10 160"></path><path d="M 26 10L 26 19.4L 26 61C 25.995908 64.692145 26.331663 68.788358 27.000002 73.199999C 27.419267 75.861362 28.472329 80.003408 29.999999 85.000001C 31.52767 89.996593 32.580732 94.138639 32.999999 96.800001C 33.668342 101.211641 34.004097 105.307853 34.000003 108.999999L 34 109.1L 34 139.1C 34.000002 150.642765 24.642752 160.000015 13.1 160.000014L 13 160L 10 160"></path></g></g></g><g id="g-root-cu_1hap0v21j9l8un-stroke" data-item-order="0" transform="translate(458, 395.5)"><g id="cu_1hap0v21j9l8un-stroke" fill="none" stroke-linecap="round" stroke-linejoin="round" stroke-miterlimit="4" stroke="#f4f4f4" stroke-width="2" stroke-dasharray="5.0, 7.0"><g><path d="M 24 10C 23.7 12.6 24.4 15.3 24 17.9C 22.6 28.2 23.5 38.6 24 49C 24.2 52.8 23.1 57 22.2 61.5C 21.7 64.2 20.7 68.9 17 73C 13.3 77.1 12.5 81.8 11.8 84.5C 10.6 89 11.2 93.4 10 97C 8.1 102.8 8.8 109.2 10 115.1C 12.3 126.4 19.4 135.8 30.9 136C 32 136 33 135.9 34 136"></path><path d="M 24 10L 24 17.9L 24 49C 23.995362 52.821417 23.387702 57.041272 22.199997 61.499999C 21.503131 64.157329 19.667343 68.217246 17 73.000005C 14.332658 77.782765 12.496869 81.842682 11.799999 84.500006C 10.61229 88.958725 10.004631 93.17858 9.999995 96.999998L 10 97.1L 10 115.1C 10.000001 126.642752 19.357249 136.000001 30.900001 136.000001L 31 136L 34 136"></path></g></g></g><g id="g-root-cu_v47zby1j9laf7-stroke" data-item-order="0" transform="translate(591.7142944335938, 400)"><g id="cu_v47zby1j9laf7-stroke" fill="none" stroke-linecap="round" stroke-linejoin="round" stroke-miterlimit="4" stroke="#f4f4f4" stroke-width="2" stroke-dasharray="5.0, 7.0"><g><path d="M 10 10C 10 14 10 18 10 22C 10 26 10.6 30 10 34C 13.7 34.2 17.3 33.7 21 34C 24.7 34.3 28.3 33.8 32 34"></path><path d="M 10 10L 10 22L 10 34L 21 34L 32 34"></path></g></g></g><g id="g-root-cu_m97g661j9l826-stroke" data-item-order="0" transform="translate(591.7142944335938, 400)"><g id="cu_m97g661j9l826-stroke" fill="none" stroke-linecap="round" stroke-linejoin="round" stroke-miterlimit="4" stroke="#f4f4f4" stroke-width="2" stroke-dasharray="5.0, 7.0"><g><path d="M 10 10C 10 12.5 10.3 15 10 17.5C 8.4 30.9 10.7 44.5 10 58C 9.7 64.6 15.4 70 22 70C 25.3 70 28.6 70 31.8 70"></path><path d="M 10 10L 10 17.5L 10 58C 10.000002 64.627417 15.372585 70 22.000002 69.999999L 22.1 70L 31.8 70"></path></g></g></g><g id="g-root-tx_architek_1q6yi721j9flsc-stroke" data-item-order="0" transform="translate(28, 434.5)"></g><g id="g-root-cu_zk1hge1j9l8ul-stroke" data-item-order="0" transform="translate(298.3999938964844, 422.5)"><g id="cu_zk1hge1j9l8ul-stroke" fill="none" stroke-linecap="round" stroke-linejoin="round" stroke-miterlimit="4" stroke="#f4f4f4" stroke-width="2" stroke-dasharray="5.0, 7.0"><g><path d="M 36.9 10C 36.8 12.5 37.8 15.2 36.9 17.5C 32 30.1 35.7 44.6 36.9 58C 37.5 64.6 31.2 68 24.9 70C 20.1 71.5 14.9 69.3 10 70"></path><path d="M 36.9 10L 36.9 17.5L 36.9 58C 36.899999 64.627415 31.527416 69.999998 24.899999 69.999998L 24.8 70L 10 70"></path></g></g></g><g id="g-root-cu_zk1hge1j9l8ui-stroke" data-item-order="0" transform="translate(310.8999938964844, 422.5)"><g id="cu_zk1hge1j9l8ui-stroke" fill="none" stroke-linecap="round" stroke-linejoin="round" stroke-miterlimit="4" stroke="#f4f4f4" stroke-width="2" stroke-dasharray="5.0, 7.0"><g><path d="M 24.4 10C 25 14 25.3 18.1 24.4 22C 23.5 25.9 24.9 30 24.4 34C 22 34.3 19.6 33.7 17.2 34C 14.8 34.3 12.3 33.5 10 34"></path><path d="M 24.4 10L 24.4 22L 24.4 34L 17.2 34L 10 34"></path></g></g></g><g id="g-root-tx_projekto_2qen21j9fnd2-stroke" data-item-order="0" transform="translate(620, 412)"></g><g id="g-root-tx_administ_1lr502m1j9fmkl-stroke" data-item-order="0" transform="translate(100, 470.5)"></g><g id="g-root-tx_rozwjapl_1q87gda1j9fnyn-stroke" data-item-order="0" transform="translate(620, 448)"></g><g id="g-root-cu_1lqiizi1j9l8ua-stroke" data-item-order="0" transform="translate(420, 47.5)"><g id="cu_1lqiizi1j9l8ua-stroke" fill="none" stroke-linecap="round" stroke-linejoin="round" stroke-miterlimit="4" stroke="#f4f4f4" stroke-width="2" stroke-dasharray="5.0, 7.0"><g><path d="M 14 232C 14.6 227.4 13.8 222.7 14 218.1C 15.3 193.8 15.6 169.3 14 145C 13.7 141 13.7 135.9 16.6 132C 18.3 129.7 20.3 125.4 24 121C 27.7 116.6 30.5 112.7 31.4 110C 33 105.4 33.7 101 34 97C 35.7 75 35.5 52.8 34 30.9C 33.2 19.4 24.6 9.7 13.1 10C 12 10 11 9.9 10 10"></path><path d="M 14 232L 14 218.1L 14 145C 14.000947 140.974825 14.885449 136.55232 16.599997 131.999997C 17.610275 129.297297 20.238954 125.389801 23.999998 120.999994C 27.761041 116.610187 30.38972 112.702691 31.399998 109.999995C 33.114547 105.447675 33.999048 101.02517 33.999998 96.999998L 34 96.9L 34 30.9C 33.999998 19.357248 24.64275 10 13.1 10L 13 10L 10 10"></path></g></g></g><g id="g-root-tx_monitoro_v4ugf21j9fmkp-stroke" data-item-order="0" transform="translate(530, 596.5)"></g><g id="g-root-cu_1lqiizi1j9l8ug-stroke" data-item-order="2" transform="translate(520, 373)"><g id="cu_1lqiizi1j9l8ug-stroke" fill="none" stroke-linecap="round" stroke-linejoin="round" stroke-miterlimit="4" stroke="#f4f4f4" stroke-width="2" stroke-dasharray="5.0, 7.0"><g><path d="M 10 10C 17.6 8.7 25.5 8.4 33 10C 40.5 11.6 48.5 11.8 56 10"></path><path d="M 10 10L 33 10L 56 10"></path></g></g></g><g id="g-root-tx_chmurowe_1hf2cgu1j9bfnu-stroke" data-item-order="2000000000" transform="translate(536, 59.5)"></g><g id="g-root-tx_administ_1hckg4e1j9h2x0-stroke" data-item-order="2000000000" transform="translate(46, 185.5)"></g><g id="g-root-sear_v63ela1j9h24t-stroke" data-item-order="2000000000" transform="translate(304, 182.5)"><g id="sear_v63ela1j9h24t-stroke" fill="none" stroke-linecap="round" stroke-linejoin="round" stroke-miterlimit="4" stroke="#f4f4f4" stroke-width="2"><g><path d="M 24.625 32.5C 30 32.25 33.625 28.25 34.25 22.875C 35 17.625 30 13.125 24.625 13.25C 19.375 13.5 15.75 17.625 15 22.875C 14.375 28.25 19.5 31.125 24.625 32.5M 10 10M 38.375 36.75C 35.875 34.75 33.5 32.375 31.5 29.75M 11 23.625C 13.125 24.5 15.875 24 18.25 23.625C 18.625 22.75 18.75 21.625 19.5 21.125C 20.5 23.125 21 25.5 22.625 27.375C 23.75 23.875 24.875 20.375 25.125 16.75C 24.625 20.75 26.5 24.625 27.625 28.625C 28.5 26.875 29.5 25.125 30.75 23.625C 33.5 23.625 36.25 23.875 39.125 23.625"></path><path d="M 24.687374 32.562374C 30.003126 32.562374 34.312374 28.253124 34.312374 22.937376C 34.312374 17.621637 30.003126 13.312375 24.687374 13.312375C 19.371662 13.312375 15.062412 17.621637 15.062412 22.937376C 15.062412 28.253124 19.371662 32.562374 24.687374 32.562374ZM 10 10M 38.437378 36.6875L 31.562376 29.6875M 10.9375 23.562624L 18.1875 23.562624L 19.4375 21.062624L 22.5625 27.312624L 25.0625 16.687626L 27.5625 28.562624L 30.6875 23.562624L 39.0625 23.562624"></path></g></g></g><g id="g-root-1_v4vrtq1izg26i-stroke" data-item-order="2000000000" transform="translate(568, 206.5)"><g id="1_v4vrtq1izg26i-stroke" fill="none" stroke-linecap="round" stroke-linejoin="round" stroke-miterlimit="4" stroke="#f4f4f4" stroke-width="2"><g><path d="M 13.875 11C 16.625 11.875 19.75 10.25 22.5 11C 23.25 11.125 23.75 11.5 23.75 12.25C 24.125 14.5 23.75 17 23.75 19.375C 20.25 18 16.125 18.25 12.625 19.375C 12.625 17 12.375 14.625 12.625 12.25C 12.625 11.5 13.125 11.125 13.875 11M 24.25 25C 20.5 23.5 16.125 24.5 12.125 25C 11.75 25 11.25 24.75 11 24.375C 10.875 24 10.625 23.5 10.875 23.125C 11.375 21.75 12.25 20.625 12.625 19.375C 16.25 18.625 20.125 19.625 23.75 19.375C 24.125 20.625 25.125 21.75 25.5 23.125C 25.5 23.5 25.5 23.875 25.375 24.375C 25.25 24.75 24.625 24.875 24.25 25M 18.25 25C 18.5 27 17.875 29.25 18.25 31.25M 11.125 31.25C 15.25 31.75 19.625 29.875 23.625 31.25M 29.25 29.75C 31.875 29.625 34.625 29.875 37.375 29.75C 37.375 29.75 39.375 29.75 39.25 31.625C 39.125 33.375 39.125 35.375 39.25 37.25C 39.25 37.25 39.25 39 37.375 39.125C 34.625 39.125 31.875 38.625 29.25 39.125C 29.25 39.125 26.875 39 27.375 37.25C 27.75 35.375 27.125 33.375 27.375 31.625C 27.375 31.625 27.375 30 29.25 29.75M 28.875 29.75C 29 29.125 28.875 28.5 28.875 27.875C 28.75 25.375 31 24.25 33.25 23.5C 35.625 22.625 37.5 25.375 37.625 27.875C 37.75 28.5 37.875 29.125 37.625 29.75M 31.375 34.375C 31.875 34.75 32.375 35.125 32.625 35.625C 33.375 34.75 34.5 34.125 35.125 33.125M 17.375 22.125C 17.875 22 18.625 22.375 19.25 22.125"></path><path d="M 13.82875 10.9375L 22.55875 10.9375C 23.249107 10.9375 23.80875 11.497144 23.80875 12.1875L 23.80875 19.360001L 23.80875 19.360001L 12.57875 19.360001L 12.57875 19.360001L 12.57875 12.1875C 12.57875 11.497144 13.138394 10.9375 13.82875 10.9375ZM 24.20125 24.974998L 12.18625 24.974998C 11.726181 24.974083 11.295763 24.747782 11.034211 24.369293C 10.772659 23.990803 10.713176 23.508171 10.875 23.077499L 12.57875 19.360001L 23.80875 19.360001L 25.514999 23.077499C 25.676979 23.508583 25.617216 23.991699 25.355076 24.370319C 25.092936 24.748938 24.66176 24.974901 24.20125 24.975ZM 18.19375 24.974998L 18.19375 31.291252M 11.09375 31.291252L 23.568748 31.291252M 29.21875 29.6875L 37.34375 29.6875C 37.34375 29.6875 39.21875 29.6875 39.21875 31.5625L 39.21875 37.1875C 39.21875 37.1875 39.21875 39.0625 37.34375 39.0625L 29.21875 39.0625C 29.21875 39.0625 27.34375 39.0625 27.34375 37.1875L 27.34375 31.5625C 27.34375 31.5625 27.34375 29.6875 29.21875 29.6875M 28.90625 29.713749L 28.90625 27.8125C 28.906252 25.396255 30.865005 23.437502 33.28125 23.437502C 35.697495 23.437502 37.65625 25.396255 37.65625 27.812502L 37.65625 29.713749M 31.40625 34.375L 32.65625 35.625L 35.15625 33.125M 17.331249 22.1675L 19.200001 22.1675"></path></g></g></g><g id="g-root-tx_bezpiecz_18gca721izg0ll-stroke" data-item-order="2000000000" transform="translate(604, 209.5)"></g><g id="g-root-plur_1448b6m1j9be2z-stroke" data-item-order="2000000000" transform="translate(500, 56.5)"><g id="plur_1448b6m1j9be2z-stroke" fill="none" stroke-linecap="round" stroke-linejoin="round" stroke-miterlimit="4" stroke="#f4f4f4" stroke-width="2"><g><path d="M 24.75 39.375C 25.375 33.75 24.75 28.125 24.75 22.5M 21 26.875C 22 30.25 20.625 34 21 37.5C 19.875 37.375 18.875 37.5 17.875 37.5C 17.875 38.125 17.625 38.75 17.875 39.375M 13.5 39.375C 14 37.625 13.125 35.625 13.5 33.75C 14.75 33.75 16 33.625 17.25 33.75C 17.625 32.125 17.5 30.375 17.25 28.75M 28.5 26.875C 28.625 30.375 29 34 28.5 37.5C 29.5 37.75 30.5 37.375 31.625 37.5C 31.75 38.125 31.625 38.75 31.625 39.375M 36 39.375C 35.5 37.5 36.375 35.625 36 33.75C 34.75 33.75 33.5 33.625 32.25 33.75C 32.75 32.25 32.25 30.375 32.25 28.75M 34.375 27.125C 37 26.875 39.875 23.875 38.75 21.375C 38.5 19.75 38.25 18 36.875 17.125C 35.625 16.125 34.125 16 32.5 15.375C 30.625 12.125 27.25 11.25 23.375 10.75C 19.625 10.25 17.125 14.75 16.625 18.5C 15.375 18.375 13.75 18.375 12.875 19.375C 12 20.375 11 21.5 11.25 22.875C 11.75 24.875 12.625 26.75 14.625 27.125"></path><path d="M 24.706251 39.375L 24.706251 22.51125M 20.95875 26.8825L 20.95875 37.501251L 17.83625 37.501251L 17.83625 39.375M 13.46375 39.375L 13.46375 33.75375L 17.21125 33.75375L 17.21125 28.75625M 28.453749 26.8825L 28.453749 37.501251L 31.577499 37.501251L 31.577499 39.375M 35.950001 39.375L 35.950001 33.75375L 32.202499 33.75375L 32.202499 28.75625M 34.375 27.125C 36.988712 26.458843 38.800488 24.081795 38.75 21.385C 38.751179 19.762434 38.091461 18.209373 36.922871 17.083708C 35.754284 15.958043 34.177635 15.356878 32.556248 15.41875C 30.92778 11.962387 27.162411 10.050786 23.411076 10.775928C 19.659737 11.501071 16.87804 14.678235 16.655001 18.4925C 15.33392 18.214674 13.957981 18.547033 12.909385 19.397261C 11.860787 20.247488 11.251219 21.525023 11.25 22.875C 11.132792 24.958664 12.587543 26.802704 14.64125 27.17375"></path></g></g></g><g id="g-root-serv_4mc2ou1izd8ng-stroke" data-item-order="2000000000" transform="translate(424, 293.5)"><g id="serv_4mc2ou1izd8ng-stroke" fill="none" stroke-linecap="round" stroke-linejoin="round" stroke-miterlimit="4" stroke="#f4f4f4" stroke-width="2"><g><path d="M 11 21.200001C 17.799999 22.799999 24 26.799999 31 27.799999C 28 37 31 47.200001 31 57C 24 56.799999 17.6 52.799999 11.2 50C 12.8 40.599998 11.6 30.799999 11 21.200001M 37 57C 43 53.200001 50.400002 52.400002 57 50C 57.200001 40.400002 56.200001 30.799999 57 21.200001C 50.400002 23.6 43 24 37 27.6C 40.200001 36.799999 39.799999 47.599998 37 57M 34 23C 41 21.4 47.799999 18.200001 55 17.200001C 48.200001 14.8 41.200001 12.8 34 11.2C 26.799999 11 19.4 13.6 13.2 17C 20 19.200001 27 21 34 23"></path><path d="M 11 21.104L 31 27.732L 31 56.903999L 11.132 50ZM 37 57L 57 50L 57 21.290001L 37 27.636ZM 33.98 23.07L 55.062 17.278L 33.98 11.282L 13.184 16.966L 33.98 23.07Z"></path></g></g></g><g id="g-root-tx_usugiit_qst47y1izd9fn-stroke" data-item-order="2000000000" transform="translate(400, 347.5)"></g><g id="g-root-apps_1cxdf321j9cutq-stroke" data-item-order="2000000000" transform="translate(578, 358)"><g id="apps_1cxdf321j9cutq-stroke" fill="none" stroke-linecap="round" stroke-linejoin="round" stroke-miterlimit="4" stroke="#f4f4f4" stroke-width="2"><g><path d="M 25.25 21.125C 26.25 21.125 27.125 20.25 27.125 19.25C 27.125 18.25 26.25 17 25.25 17.375C 24.25 17.75 23.625 18.25 23.375 19.25C 23.125 20.25 24.25 21 25.25 21.125M 19.875 30.625C 20.875 31 21.75 29.75 21.75 28.75C 21.875 27.75 21 26.625 19.875 26.875C 18.875 27.125 18 27.75 18 28.75C 18.125 29.75 18.875 30.5 19.875 30.625M 30.625 30.625C 31.625 30.5 32.125 29.75 32.5 28.75C 32.75 27.75 31.625 27 30.625 26.875C 29.5 26.75 29 27.75 28.75 28.75C 28.375 29.75 29.5 30.625 30.625 30.625M 21.75 28.75C 24 29.25 26.5 29.375 28.75 28.75M 21.125 27.25C 21.625 25 23.5 23.125 24.375 20.875M 10 10M 29.375 27.25C 27.75 25.5 27.75 22.625 26.125 20.875M 15.125 34.875C 9.625 29.5 9.5 20.25 15.125 15C 19.5 11 25.5 9.625 30.5 12.125M 10 10M 38.375 15.375C 37.25 15.5 36 15.375 34.875 15.125C 34.75 16.375 34.25 17.625 34.625 18.75M 10 10M 11.5 34.5C 12.625 34.875 14 34.375 15.125 34.875C 15.5 33.75 15.125 32.375 15.5 31.25M 34.875 15.125C 40 20.875 40.125 29.25 34.875 35C 30.75 39.25 25 38.375 19.5 37.875"></path><path d="M 25.25 21.125187C 26.2855 21.125187 27.125 20.285713 27.125 19.250187C 27.125 18.214649 26.2855 17.375187 25.25 17.375187C 24.214375 17.375187 23.375 18.214649 23.375 19.250187C 23.375 20.285713 24.214375 21.125187 25.25 21.125187ZM 19.937437 30.62525C 20.972975 30.62525 21.812437 29.785875 21.812437 28.75025C 21.812437 27.71475 20.972975 26.87525 19.937437 26.87525C 18.901899 26.87525 18.062437 27.71475 18.062437 28.75025C 18.062437 29.785875 18.901899 30.62525 19.937437 30.62525ZM 30.5625 30.62525C 31.598 30.62525 32.4375 29.785875 32.4375 28.75025C 32.4375 27.71475 31.598 26.87525 30.5625 26.87525C 29.526875 26.87525 28.6875 27.71475 28.6875 28.75025C 28.6875 29.785875 29.526875 30.62525 30.5625 30.62525ZM 21.812437 28.75025L 28.6875 28.75025M 21.12495 27.300625L 24.375 20.912937M 10 10M 29.375 27.300625L 26.125 20.912937M 15.171688 34.828251C 9.718568 29.375126 9.718568 20.497963 15.171688 15.044838C 19.356638 10.859883 25.443874 9.845365 30.5165 12.128062M 10 10M 38.379128 15.425438L 34.828251 15.171813L 34.574627 18.722687M 10 10M 11.494062 34.44825L 15.171775 34.828625L 15.552213 31.27775M 34.828373 15.171813C 40.281502 20.624939 40.281502 29.502125 34.828373 34.95525C 30.643375 39.140125 24.556126 40.154751 19.483488 37.872002"></path></g></g></g><g id="g-root-tx_projekto_1um5j8e1j9ifpr-stroke" data-item-order="2000000000" transform="translate(4, 383.5)"></g><g id="g-root-2_1cvhztq1j9iex4-stroke" data-item-order="2000000000" transform="translate(310, 380.5)"><g id="2_1cvhztq1j9iex4-stroke" fill="none" stroke-linecap="round" stroke-linejoin="round" stroke-miterlimit="4" stroke="#f4f4f4" stroke-width="2"><g><path d="M 25 28.375C 24.625 30.125 25 32 25 34M 36.625 34C 36.25 33.25 36.25 32.375 36.625 31.625C 36.75 31 36.125 30.5 35.375 30.375C 28.5 30.25 21.375 28.875 14.75 30.375C 14 30.625 13.5 31 13.5 31.625C 13.375 32.375 13.5 33.125 13.5 34M 23.125 21.5C 22.25 18.5 22.625 15.25 23.125 12.375C 23.25 11.625 23.625 11.125 24.375 11.125C 24.75 11 25.25 11.125 25.625 11.125C 26.375 10.875 26.625 11.625 26.875 12.375C 27.625 15.25 27.75 18.5 26.875 21.375M 34.375 24C 34.375 24.75 33.875 25.125 33.125 25.25C 27.75 26.125 22 23.25 16.875 25.25C 16.125 25.5 15.375 24.625 15.625 24C 15.75 23.5 15.5 23.125 15.625 22.75C 15.75 22 16.125 21.625 16.875 21.375C 22.125 19.875 27.75 21.375 33.125 21.375C 33.875 21.5 34.25 22 34.375 22.75C 34.375 23.125 34.25 23.5 34.375 24M 26.875 13.625C 30.125 14.125 33.5 17.5 32.5 20.875C 32.5 21 32.5 21.25 32.5 21.5M 23.125 13.625C 19.875 14.375 17.375 17.25 17.5 20.875C 17.5 21 17.375 21.25 17.5 21.5M 13.5 39C 14.75 38.75 16 37.875 16 36.5C 15.875 35 14.75 34.125 13.5 34C 12.125 33.75 10.5 35.125 11 36.5C 11.375 37.75 12 39 13.5 39M 25 39C 26.375 39.375 27.125 37.75 27.5 36.5C 27.875 35.125 26.375 33.625 25 34C 23.625 34.25 23 35.125 22.5 36.5C 22 37.75 23.625 38.75 25 39M 36.625 39C 38 39.125 38.75 37.75 39.125 36.5C 39.375 35.125 38 33.875 36.625 34C 35.125 34 34.125 35 34.125 36.5C 34 37.875 35.25 39.375 36.625 39"></path><path d="M 25 28.3125L 25 33.9375M 36.5625 33.9375L 36.5625 31.6875C 36.5625 30.9375 36.0625 30.4375 35.3125 30.4375L 14.6875 30.4375C 13.9375 30.4375 13.4375 30.9375 13.4375 31.6875L 13.4375 33.9375M 23.125 21.437513L 23.125 12.312512C 23.125 11.562512 23.625 11.062508 24.375 11.062508L 25.625 11.062508C 26.375 11.062508 26.875 11.562512 26.875 12.312512L 26.875 21.312511M 34.375 23.9375C 34.375 24.6875 33.875 25.1875 33.125 25.1875L 16.875 25.1875C 16.125 25.1875 15.625 24.6875 15.625 23.9375L 15.625 22.6875C 15.625 21.937487 16.125 21.437489 16.875 21.437489L 33.125 21.437489C 33.875 21.437489 34.375 21.937487 34.375 22.6875L 34.375 23.9375ZM 26.875 13.562512C 30.125 14.437512 32.5 17.312511 32.5 20.812513L 32.5 21.437513M 23.125 13.562512C 19.875 14.437512 17.5 17.312511 17.5 20.812513L 17.5 21.437513M 13.4375 38.9375C 14.818213 38.9375 15.9375 37.818253 15.9375 36.4375C 15.9375 35.056751 14.818213 33.9375 13.4375 33.9375C 12.056787 33.9375 10.9375 35.056751 10.9375 36.4375C 10.9375 37.818253 12.056787 38.9375 13.4375 38.9375ZM 25 38.9375C 26.380751 38.9375 27.5 37.818253 27.5 36.4375C 27.5 35.056751 26.380751 33.9375 25 33.9375C 23.619249 33.9375 22.5 35.056751 22.5 36.4375C 22.5 37.818253 23.619249 38.9375 25 38.9375ZM 36.5625 38.9375C 37.943253 38.9375 39.0625 37.818253 39.0625 36.4375C 39.0625 35.056751 37.943253 33.9375 36.5625 33.9375C 35.181747 33.9375 34.0625 35.056751 34.0625 36.4375C 34.0625 37.818253 35.181747 38.9375 36.5625 38.9375Z"></path></g></g></g><g id="g-root-tx_tworzeni_3cvq61j9csn9-stroke" data-item-order="2000000000" transform="translate(614, 361)"></g><g id="g-root-1_i0vn321j9jw26-stroke" data-item-order="2000000000" transform="translate(378, 32.5)"><g id="1_i0vn321j9jw26-stroke" fill="none" stroke-linecap="round" stroke-linejoin="round" stroke-miterlimit="4" stroke="#f4f4f4" stroke-width="2"><g><path d="M 25 26.875C 26 26.875 27 26 26.875 25C 26.5 24 26 23 25 23.125C 23.875 23.25 23 24 23.125 25C 23.125 26 23.875 26.75 25 26.875M 21 31.25C 19.125 29.625 17 27.5 17.625 25C 18.5 21 21 17.375 25.125 17.5C 27.125 17.5 28.875 18.625 30.375 19.75C 29 21.125 27.75 22.5 26.375 23.625M 32.5 25C 32.5 25.5 32.625 26.125 32.25 26.5M 30.5 30.125C 28.875 31.375 27.125 33 25 32.5M 35.625 33.125C 35.625 34.5 34.5 35.5 33.125 35.625C 27.75 36.375 22.25 34.875 16.875 35.625C 15.5 35.75 14.125 34.5 14.375 33.125C 15.375 27.75 14 22.25 14.375 16.875C 14.5 15.5 15.625 14.875 16.875 14.375C 21.875 12.375 27.75 14.875 33.125 14.375C 34.5 14.25 36 15.5 35.625 16.875C 34.25 22.125 36.375 27.75 35.625 33.125M 11 16.625C 12 16.75 13.25 16.625 14.375 16.625M 11 22.25C 12 22.5 13.25 22.375 14.375 22.25M 11 27.875C 12.125 27.625 13.25 27.875 14.375 27.875M 35.625 22.25C 36.75 22.375 38 21.75 39.125 22.25M 35.625 27.875C 36.75 27.5 38 28.25 39.125 27.875M 11 33.5C 12 33.75 13.25 33.375 14.375 33.5M 39.125 16.625C 38 17 36.75 16.625 35.625 16.625M 39.125 33.5C 38 33.75 36.75 33.25 35.625 33.5M 33.375 39.125C 33.625 38 33.25 36.75 33.375 35.625M 27.75 39.125C 28 38 27.375 36.75 27.75 35.625M 22.25 39.125C 21.875 38 22.375 36.75 22.25 35.625M 27.75 14.375C 27.875 13.25 27.75 12.125 27.75 11M 22.25 14.375C 22.375 13.25 22.25 12.125 22.25 11M 16.625 39.125C 16.5 37.875 16.75 36.75 16.625 35.625M 33.375 11C 33.5 12.125 33.375 13.25 33.375 14.375M 16.625 11C 16.5 12.125 16.5 13.25 16.625 14.375"></path><path d="M 24.9375 26.875C 25.973 26.875 26.8125 26.0355 26.8125 25C 26.8125 23.9645 25.973 23.125 24.9375 23.125C 23.901875 23.125 23.0625 23.9645 23.0625 25C 23.0625 26.0355 23.901875 26.875 24.9375 26.875ZM 20.937561 31.25C 18.937563 29.875 17.562563 27.625 17.562563 25C 17.562563 20.875 20.937561 17.5 25.0625 17.5C 27.1875 17.5 29.0625 18.375 30.3125 19.75L 26.3125 23.62475M 32.4375 25C 32.4375 25.5 32.4375 26 32.3125 26.5M 30.4375 30.1245C 29.0625 31.6245 27.1875 32.4995 24.9375 32.4995M 35.625 33.125C 35.625 34.5 34.5 35.625 33.125 35.625L 16.875 35.625C 15.5 35.625 14.375 34.5 14.375 33.125L 14.375 16.875C 14.375 15.5 15.5 14.375 16.875 14.375L 33.125 14.375C 34.5 14.375 35.625 15.5 35.625 16.875L 35.625 33.125ZM 10.9375 16.5625L 14.375 16.5625M 10.9375 22.1875L 14.375 22.1875M 10.9375 27.8125L 14.375 27.8125M 35.625 22.1875L 39.0625 22.1875M 35.625 27.8125L 39.0625 27.8125M 10.9375 33.4375L 14.375 33.4375M 39.0625 16.5625L 35.625 16.5625M 39.0625 33.4375L 35.625 33.4375M 33.374874 39.0625L 33.374874 35.625M 27.791626 39.0625L 27.791626 35.625M 22.208324 39.0625L 22.208324 35.625M 27.791626 14.375L 27.791626 10.9375M 22.208324 14.375L 22.208324 10.9375M 16.625063 39.0625L 16.625063 35.625M 33.374874 10.9375L 33.374874 14.375M 16.625063 10.9375L 16.625063 14.375"></path></g></g></g><g id="g-root-up_vagq721j98n45-stroke" data-item-order="2000000000" transform="translate(494, 506.5)"><g id="up_vagq721j98n45-stroke" fill="none" stroke-linecap="round" stroke-linejoin="round" stroke-miterlimit="4" stroke="#f4f4f4" stroke-width="2"><g><path d="M 11 39.125C 12.75 39.5 14.25 38.5 16.5 37.25C 18.875 38.5 20.25 39.25 20.75 39.125C 21.25 38.875 22.75 38.5 25 37.25C 27.125 38.875 28.75 39.125 29.25 39.125C 29.75 39 32.375 39.625 33.5 37.25C 35.875 38.375 37.25 39.375 39.125 39.125M 35.25 15.5C 37.5 15.375 39.375 14.5 39.375 13.25C 39.25 12 37.5 11 35.25 11C 32.875 10.875 31.125 12 31 13.25C 30.875 14.5 32.875 15.75 35.25 15.5M 31 13.25C 31.375 15.25 31.375 17.375 31 19.375C 30.875 20.625 33 22.375 35.25 21.625C 37.375 20.875 39 20.5 39.375 19.375C 40 17.5 39.125 15.25 39.375 13.25M 12.875 34.25C 13 33.875 12.75 33.375 12.375 33C 12 32.75 11.625 32.5 11.5 32.125C 11 31.75 10.75 30.875 11.125 30.375C 11.125 29.625 11.875 29.375 12.625 29.375C 13 29.375 13.375 29.5 13.75 29.375C 14.125 29.375 14.625 29.25 15 29C 15.25 28.75 15.375 28.375 15.375 27.75C 15.375 27.375 15.375 27 15.375 26.625C 15.375 26 15.75 25.125 16.375 25.125C 17 25 17.625 25.125 18.125 25.5C 18.5 25.75 18.75 26 19 26.375C 19.125 26.75 19.625 27 20.125 26.875C 20.75 26.875 21.125 26.875 21.375 26.375C 21.625 26 21.875 25.75 22.25 25.5C 22.5 24.875 23.5 24.875 24 25.125C 24.75 25.25 25.25 26 25 26.625C 24.875 27 25.125 27.375 25 27.75C 25 28.125 25.125 28.75 25.375 29C 25.625 29.25 26.25 29.5 26.625 29.375C 27 29.5 27.375 29.375 27.75 29.375C 28.5 29.5 29.125 29.875 29.25 30.375C 29.75 31 29.375 31.625 28.875 32.125C 28.75 32.5 28.375 32.875 28 33C 27.75 33.125 27.625 33.75 27.5 34.25M 17.125 34.25C 17.125 32.625 18.625 31.5 20.375 31.125C 22 30.75 23.625 32.5 23.375 34.25M 35.25 24.625C 36 27.625 34.25 30.875 35.25 33.75M 10 10M 32.75 27.125C 33.625 26.375 34.75 25.75 35.25 24.625C 35.75 25.625 36.625 26.625 37.75 27.125M 39.375 16.25C 39.75 17.5 37.375 19.25 35.25 18.625C 33 17.875 31.25 17.5 31 16.25"></path><path d="M 10.9375 39.0625C 12.8042 39.0625 14.670913 39.0625 16.537613 37.1875C 18.404312 39.0625 20.271013 39.0625 20.768799 39.0625C 21.266588 39.0625 23.133251 39.0625 25 37.1875C 26.866749 39.0625 28.733376 39.0625 29.231251 39.0625C 29.729 39.0625 31.595627 39.0625 33.462376 37.1875C 35.329124 39.0625 37.195747 39.0625 39.0625 39.0625M 35.1875 15.494762C 37.48225 15.494762 39.342625 14.474587 39.342625 13.216138C 39.342625 11.957675 37.48225 10.9375 35.1875 10.9375C 32.892624 10.9375 31.032373 11.957675 31.032373 13.216138C 31.032373 14.474587 32.892624 15.494762 35.1875 15.494762ZM 31.032373 13.216063L 31.032373 19.381775C 31.032373 20.588114 32.908875 21.660412 35.1875 21.660412C 37.466125 21.660412 39.342625 20.588114 39.342625 19.381775L 39.342625 13.216063M 12.870325 34.249874C 12.870325 33.835751 12.732275 33.421627 12.3181 33.007374L 11.489738 32.179001C 10.937504 31.764874 10.79944 30.936501 11.075558 30.384251C 11.351675 29.694 11.903913 29.417875 12.594213 29.417875L 13.698688 29.417875C 14.112863 29.417875 14.665088 29.279875 14.941213 29.00375C 15.217325 28.727625 15.355388 28.320251 15.355388 27.761126L 15.355388 26.65675C 15.355388 25.966375 15.769563 25.276125 16.3218 25.138C 17.012087 24.862 17.702387 25 18.116562 25.55225L 18.944925 26.380625C 19.221037 26.65675 19.635212 26.932875 20.18745 26.932875C 20.739674 26.932875 21.015787 26.79475 21.429962 26.380625L 22.258324 25.55225C 22.672499 25 23.500875 24.862 24.053125 25.138C 24.743374 25.414125 25.019501 25.966375 25.019501 26.65675L 25.019501 27.761126C 25.019501 28.175375 25.157625 28.727625 25.433624 29.00375C 25.709749 29.279875 26.261999 29.556 26.67625 29.417875L 27.780624 29.417875C 28.471001 29.417875 29.161251 29.831999 29.299376 30.384251C 29.5755 31.074623 29.437374 31.764874 28.885124 32.179001L 28.056751 33.007374C 27.780624 33.283501 27.504499 33.69775 27.504499 34.249874M 17.150112 34.249874C 17.150112 32.593124 18.530712 31.074501 20.325474 31.074501C 21.982176 31.074501 23.362749 32.455002 23.362749 34.249874M 35.1875 24.624874L 35.1875 33.749878M 10 10M 32.6875 27.125L 35.1875 24.625L 37.6875 27.125M 39.342625 16.274788C 39.342625 17.559887 37.482376 18.601675 35.1875 18.601675C 32.892624 18.601675 31.032373 17.559887 31.032373 16.274788"></path></g></g></g><g id="g-root-tx_wsparcie_4hxfoe1j9juo2-stroke" data-item-order="2000000000" transform="translate(156, 533.5)"></g><g id="g-root-wren_1hckg4e1j9jtor-stroke" data-item-order="2000000000" transform="translate(366, 530.5)"><g id="wren_1hckg4e1j9jtor-stroke" fill="none" stroke-linecap="round" stroke-linejoin="round" stroke-miterlimit="4" stroke="#f4f4f4" stroke-width="2"><g><path d="M 30.75 15.5C 30.25 13.75 29.5 12.25 28.25 10.75C 28.125 10.625 27.875 10.625 27.625 10.75C 27.375 10.875 27.25 11.125 27.25 11.375C 27.625 12.125 27.25 13.125 27.25 14C 27.25 15.125 26.25 16.375 25 16.25C 23.75 16 22.875 15.125 22.75 14C 22.75 13 23 12.125 22.75 11.25C 22.75 11 22.625 10.875 22.5 10.75C 22.25 10.625 22 10.75 21.75 10.75C 19.625 11.125 19.25 14 19.25 16.125C 19.125 18.25 21.25 19.375 22.75 20.875C 23.75 24.375 22 28.25 22.75 31.875C 24.25 31.625 25.75 31.75 27.25 31.875C 27.5 28.25 28.5 24.375 27.25 20.875C 29.375 20 30.75 17.875 30.75 15.5M 16.25 39.375C 22.125 39.125 27.875 39 33.75 39.375M 24.375 36.875C 24.5 37.625 24.5 38.625 24.375 39.375M 10.625 31.875C 20 29.625 29.875 30.25 39.375 31.875M 33.75 14.375C 35 14.25 36.25 14 37.5 14.375C 38.5 14.75 39.25 15.25 39.375 16.25C 40.125 22.5 39.625 28.75 39.375 35C 39.375 36 38.5 36.875 37.5 36.875C 29.125 37.375 20.75 36.25 12.5 36.875C 11.5 37 10.75 36 10.625 35C 9.75 28.875 12.625 22.125 10.625 16.25C 10.25 15.25 11.5 14.25 12.5 14.375C 13.75 14.5 15 14.125 16.25 14.375"></path><path d="M 30.799999 15.5525C 30.800753 13.64623 29.862949 11.861786 28.2925 10.78125C 28.092964 10.652753 27.839186 10.643468 27.630795 10.757042C 27.422401 10.870616 27.29266 11.088919 27.2925 11.32625L 27.2925 13.94125C 27.292501 15.183891 26.285141 16.19125 25.0425 16.19125L 25.0425 16.19125C 23.79986 16.19125 22.7925 15.183891 22.7925 13.94125L 22.7925 11.28C 22.793333 11.042135 22.664173 10.822812 22.455751 10.708179C 22.247328 10.593548 21.992935 10.601916 21.7925 10.73C 20.011633 11.91696 19.029947 13.988832 19.239225 16.118752C 19.448503 18.248674 20.814669 20.089855 22.7925 20.907499L 22.7925 31.875L 27.2875 31.875L 27.2875 20.875C 29.416792 19.962212 30.79805 17.869192 30.799999 15.5525ZM 16.25 39.375L 33.75 39.375M 24.375 36.875L 24.375 39.375M 10.625 31.875L 39.375 31.875M 33.75 14.375L 37.5 14.375C 38.535534 14.375 39.375 15.214466 39.375 16.25L 39.375 35C 39.375 36.035534 38.535534 36.875 37.5 36.875L 12.5 36.875C 11.464466 36.875 10.625 36.035534 10.625 35L 10.625 16.25C 10.625 15.214466 11.464466 14.375 12.5 14.375L 16.25 14.375"></path></g></g></g><g id="g-root-tx_utrzyman_1d1qqou1j98kr0-stroke" data-item-order="2000000000" transform="translate(530, 509.5)"></g><g id="g-root-tx_automaty_vcc5ge1j9juh9-stroke" data-item-order="2000000000" transform="translate(84, 35.5)"></g></g></g></svg>